<?xml version="1.0" encoding="UTF-8"?><svg id="ARTWORK" xmlns="http://www.w3.org/2000/svg" viewBox="0 0 1000 1000"><path d="M972.2464,440.2787c-2.4577-16.3019-1.897-32.0258-7.4289-47.9588-5.3836-15.5068-6.8487-32.7486-13.5136-47.2606-6.0087-13.0816-15.6862-23.8777-21.7159-36.9796-7.6995-16.7346-20.6393-29.1687-29.3394-45.3288-15.3317-28.4756-44.1908-43.4239-64.5595-67.7451-18.882-22.5458-41.9732-43.6684-66.4225-59.3149-10.2144-6.5361-20.9251-9.6291-31.5707-14.4577-12.9456-5.8712-26.1944-10.88-39.4866-16.0429-10.8373-4.2086-20.2899-8.6914-31.3949-11.7981-4.5089-1.2618-9.9221-2.8947-14.1799-5.2823-10.349-5.8047-13.1091-8.3333-25.2669-9.4026-22.6304-1.9904-47.0443-6.1925-69.4786-11.9219-24.8147-6.3364-50.5518-7.7444-75.5387-13.4195-22.1189-5.024-54.3987-3.8121-76.9242-1.4535-30.6844,3.2123-63.7644,17.0631-92.3275,28.2477-12.1353,4.7512-26.4071,5.0594-38.0793,10.0342-7.031,2.9967-13.7393,9.789-20.3297,13.8355-6.233,3.8273-11.5326,6.9413-17.4096,11.6397-12.7358,10.1818-26.4302,18.916-39.1574,28.9828-14.75,11.6672-23.7149,25.8326-35.4009,40.1963-10.6594,13.1019-25.6409,23.0023-35.5992,36.6591-8.7739,12.0326-16.566,26.015-25.1229,38.5749-8.4071,12.3408-12.4811,24.2337-21.6689,35.9428-10.8192,13.7863-17.2338,30.144-25.8601,45.2333-10.6753,18.6729-12.819,36.1975-13.1591,55.3291-4.3519,9.5488-8.1777,19.4-9.7029,29.3221-1.999,13.0071-1.9151,25.4492-4.32,38.5135-4.3815,23.7945-1.1243,51.378-1.1243,75.6588,0,10.3895.0868,20.7819-.0991,31.1692-.3372,18.7257,7.5678,31.044,10.4843,48.356,4.5306,26.8904,15.2854,53.7084,23.4682,80.1568,12.2308,39.5336,32.5171,69.9424,61.18,98.8607,10.0791,10.1688,21.4316,18.3509,32.5417,27.3035,5.3677,4.3258,9.7079,6.675,14.1973,11.8835,2.7508,5.3959,5.9342,10.4915,9.5488,15.289,4.3229,3.1632,9.1002,5.134,14.3326,5.9132,11.4393,6.6729,19.8905,17.4791,31.7053,24.2851,9.9163,5.712,19.4622,8.3123,30.1859,11.6571,25.1323,7.8399,49.3732,11.8727,74.2877,19.7299,29.2512,9.2254,58.8395,14.8253,88.7599,21.3534,11.2743,2.4599,21.1581,6.3741,32.6473,6.7438,4.1898.1346,8.3984-.3769,12.5882-.246,9.6493.3031,14.8564,3.8642,23.7475,5.6969,20.0685,4.1384,46.8945.9709,65.7113-4.3946,11.4205-3.2572,23.9414-2.4773,35.6165-5.3011,7.0049-1.6937,13.5953.3863,20.3745-.8856,6.5455-1.2292,11.9624-4.9386,18.6844-5.8857,7.4846-1.0556,14.3579,1.7552,21.8418-.764,4.4343-1.4933,7.9795-5.5116,12.3813-7.1019,9.7217-3.5126,18.0781-4.7114,27.8194-9.2152,24.4884-11.3192,49.5729-19.141,71.8546-35.4899,10.9647-8.0461,23.9819-12.866,34.3837-21.0691,9.8367-7.7581,21.1443-18.2178,30.4457-26.7761,20.8586-19.1923,48.4182-42.2981,60.6403-68.7826,7.4014-16.0379,11.4624-26.6213,22.4785-40.3808,8.2038-10.2448,16.0617-21.7007,21.4728-33.8252,11.3814-25.5078,22.6543-53.2736,27.7933-80.8094,10.4061-55.7603,23.5579-110.5366,15.0083-167.2743Z" style="stroke-width:0px;"/><path d="M987.1423,436.1721c.3587,2.4812-.3798-3.1754-.3433-2.8469-.1279-1.1505-.2446-2.3026-.3587-3.4545-.2833-2.8601-.5275-5.7238-.7977-8.5851-.6138-6.5015-1.3295-13.0154-2.4672-19.4483-1.872-10.5844-5.8249-20.6881-8.253-31.1611-2.6543-11.4487-5.3097-22.6959-10.2798-33.4135-4.4128-9.5158-10.7517-17.8922-16.1953-26.8091-5.639-9.2369-9.8477-19.0365-16.1208-27.9286-5.7876-8.2039-12.1072-16.0573-17.1619-24.756-10.1755-17.5112-22.9628-31.4425-38.1749-44.6966-7.2689-6.3333-14.6489-12.5593-21.4868-19.3652-7.2685-7.2346-13.5803-15.3425-20.5875-22.8245-15.5381-16.591-32.8869-31.5934-51.6561-44.4274-10.0233-6.8537-20.632-11.5879-31.8735-16.1007-4.6444-1.8645-7.1631-3.0775-12.3902-5.3282-6.3866-2.75-12.815-5.4004-19.2807-7.9584-10.7348-4.247-21.4742-8.4691-32.1902-12.7632-4.8864-1.9581-9.8177-3.7989-14.8637-5.3066-2.4844-.7423-4.9915-1.4005-7.453-2.2186-.9805-.3259-1.9717-.6596-2.9349-1.0381,2.3438.9209-2.0148-1.0725-2.5249-1.3558-7.6212-4.2322-15.0286-8.6606-23.7816-10.0507-11.763-1.8681-22.7718-2.4334-33.144-4.0684-22.8688-3.605-45.0881-10.1355-67.9429-13.738-11.4623-1.8068-22.9778-3.2745-34.4095-5.2748-10.9057-1.9082-21.5667-4.4768-32.5994-5.6565-19.5874-2.0944-39.5527-1.3336-59.1279.5363-22.7613,2.1742-44.4511,8.2391-65.872,16.0511-10.3568,3.777-20.5974,7.8595-30.8558,11.8931-10.3897,4.0853-21.1848,5.4773-31.9348,8.2224-5.3164,1.3576-10.659,3.2053-15.4796,5.8446-2.2614,1.2381-4.3704,2.7439-6.4381,4.276-.8532.6322-1.6923,1.2846-2.5349,1.9307-3.2268,2.4963-4.1671,3.2224-2.8209,2.1785.7202-.557.4049-.319-.9457.7139-3.999,2.9662-8.2969,5.4246-12.4911,8.0974-1.9961,1.2721-3.9699,2.5794-5.8916,3.962-1.4285,1.0277-2.8192,2.1027-4.2116,3.1784-.9758.7475-1.9458,1.5024-2.9099,2.2649-1.5,1.166-1.8326,1.4363-.9979.8108-18.033,14.0858-38.2725,25.5319-53.418,42.9829-3.1423,3.6206-6.1103,7.3863-9.0484,11.1729-2.128,2.7426-4.235,5.5013-6.359,8.247.4269-.5518,1.3553-1.7294-.5903.7551-1.0233,1.3068-2.0474,2.6133-3.0896,3.9051-6.5617,8.1339-14.3778,14.9597-21.9814,22.0799-16.4844,15.4363-27.1272,34.6585-39.3849,53.3511-5.8601,8.9365-10.8466,18.1688-16.1199,27.4479-5.4836,9.649-12.7499,18.045-18.24,27.7024-5.1039,8.9781-9.4224,18.3728-14.4023,27.4175-5.8103,10.5529-10.8529,21.416-13.4385,33.2454-2.3451,10.729-3.1969,21.7645-3.4228,32.7236.703-2.5989,1.406-5.1978,2.1091-7.7967-3.1682,7.0137-6.2665,14.1198-8.5413,21.4822-2.4556,7.9472-3.5267,16.1762-4.3645,24.4315-.7061,6.958-1.0853,13.9481-1.9184,20.8936-.6808,5.6755.238-1.2433-.3006,2.0553-.232,1.4207-.5017,2.8348-.7362,4.2549-.7587,4.5949-1.376,9.2287-1.8021,13.8672-1.301,14.1622-.681,28.4228-.1459,42.6071.5265,13.9566.618,27.9024.5644,41.8685-.0536,13.9673.5668,27.0476,4.6731,40.5036,1.7113,5.6079,3.6217,11.1578,4.9953,16.8633,1.7433,7.2409,2.7789,14.6277,4.565,21.8684,3.4982,14.1816,8.1655,28.0395,12.8047,41.8784,4.4843,13.3765,8.3447,27.02,13.5735,40.1316,9.5118,23.8516,22.4054,45.4212,38.533,65.3836,17.2993,21.4127,37.9221,38.9317,59.9212,55.3358.1153.086,4.0157,3.1076,1.6002,1.1475,1.1638.9444,2.3299,1.9122,3.3814,2.9829,2.2844,2.3258.0431-.9158,1.3655,2.1754.6271,1.4657,1.6432,2.902,2.4758,4.2587,1.7138,2.7929,3.5667,5.4938,5.5297,8.1169,3.2833,4.3873,7.4426,7.1735,12.3671,9.3924,3.2595,1.4687,6.3188,2.2103,9.6414,3.3504-2.5574-.8775,1.3562.9257,1.7161,1.1747.0521.036,3.9802,3.0548,1.737,1.2518,5.1965,4.1769,10.0323,8.7771,15.2715,12.9044,11.5424,9.0928,24.466,14.5866,38.4173,18.9324,14.3816,4.4798,28.8911,8.2728,43.5308,11.8068,28.7234,6.9338,56.7785,16.1156,85.6319,22.5605,14.4841,3.2353,29.1142,5.9316,43.5338,9.441,6.4465,1.5689,12.7885,3.5854,19.316,4.8124,7.8005,1.4662,15.1966,1.6557,23.0875,1.4756,1.7579-.0401,3.4977-.0331,5.2534.0713-2.9689-.1765,1.4556.2686,1.8031.348,2.6467.6051,5.2089,1.4982,7.7848,2.3436,6.8907,2.2616,13.8343,3.4666,21.0506,4.2173,13.28,1.3815,26.6558.2126,39.8167-1.726,5.884-.8667,11.7308-1.9871,17.496-3.4535,2.9718-.7559,5.8992-1.6476,8.9121-2.2363,3.3874-.6619,3.7282-.615,7.7906-1.009,7.6972-.7466,15.2535-1.8409,22.8697-3.121-2.3227.3904,2.9285-.1486,2.7825-.1479,1.6905-.0082,3.3776.119,5.0661.1737,4.708.1525,9.4168-.1305,14.0175-1.2366,2.9246-.7032,5.6843-1.9192,8.4802-2.9992,1.4006-.541,2.7997-1.0917,4.2375-1.5286.1202-.0365,4.8037-.9363,2.0854-.6599,7.6202-.7748,14.8532,1.3814,22.5147-.6457,3.7065-.9807,7.2188-2.6298,10.413-4.7352,1.1666-.7689,2.5365-1.5575,3.5977-2.4618,2.8208-2.4039-2.3493.4399,1.6954-.9608,6.5551-2.2701,13.3607-3.7308,19.8921-6.0757,6.5587-2.3547,12.8244-5.4707,19.2137-8.2361,3.7345-1.6164,3.9115-1.68,7.0659-3.0046,4.2961-1.8041,8.5945-3.603,12.879-5.4345,12.264-5.2426,24.4206-10.8631,35.6548-18.1015,5.6023-3.6097,10.8576-7.6537,16.641-10.9901,6.0645-3.4986,12.357-6.6051,18.2755-10.3554,11.5615-7.3258,21.7995-17.0301,31.881-26.2251,18.4194-16.7997,37.9242-33.1033,53.6303-52.5695,8.2855-10.269,14.9026-20.8422,20.3545-32.829,5.0439-11.0899,10.2186-22.1059,17.7101-31.8007-1.4887,1.9266,1.8575-2.3185,1.6751-2.0855,1.494-1.9082,2.9787-3.8249,4.4363-5.7611,1.6795-2.231,3.3218-4.4894,4.9092-6.7869,4.1385-5.9897,7.93-12.2406,11.0977-18.8006,6.7287-13.9344,12.5916-28.457,17.9607-42.9637,10.0843-27.2468,15.0115-55.5354,20.3147-83.9983,5.5387-29.727,10.3975-59.8517,10.7689-90.1549.1888-15.4026-1.0491-30.6541-3.2829-45.887-1.1765-8.0226-11.742-13.1388-19.0024-10.7892-8.7684,2.8376-12.0501,10.4044-10.7892,19.0024,1.1077,7.5536,1.9282,18.6423,2.1307,27.7339.221,9.9214-.0954,19.8489-.8126,29.7454-1.4229,19.6349-4.0799,36.2144-7.6516,55.8757-3.4946,19.2368-6.6062,38.7759-11.2958,57.76-4.5109,18.2603-11.8013,37.8029-18.6613,53.7694-3.6116,8.4059-7.2377,16.7712-11.9627,24.6254-5.2355,8.7028-9.966,14.6057-15.5086,21.8177-10.1814,13.2482-15.699,28.2884-23.3457,42.9418-1.8194,3.4866-3.8703,6.8512-6.067,10.112-1.1243,1.6689-2.2991,3.3016-3.4919,4.9219-.0107.0145-1.5293,1.9943-.6439.861.9244-1.1833-1.4483,1.779-1.661,2.0375-5.4515,6.6269-11.3785,12.8492-17.5016,18.8556-11.7815,11.5568-24.1695,22.5336-36.3791,33.6344-6.1498,5.5913-14.0264,12.6793-19.4874,16.9316,1.2687-.9879-1.3433.9652-1.5971,1.1426-.8714.6092-1.7555,1.1981-2.6492,1.774-1.7975,1.1582-3.6339,2.2516-5.4885,3.3155-3.981,2.2838-8.0501,4.4089-12.0454,6.6671-7.7549,4.3832-14.726,9.9007-22.3623,14.4693-7.8698,4.7082-16.1246,8.7263-24.4991,12.4484-2.0218.8986-4.0511,1.7799-6.0845,2.6517-2.5671,1.1006-1.3826.5982-3.9601,1.681-5.0742,2.1315-10.1536,4.2516-15.2109,6.423-8.3846,3.6001-13.6097,6.0903-22.4757,8.6187-8.4308,2.4042-18.7632,4.6396-25.2831,10.9391-1.2029,1.1623,1.7581.0683-.3512.2139-2.8836.199,1.7974.0264-.9695.2453-1.9304.1527-3.8891-.0403-5.8145-.1734-5.8403-.4037-11.4739-.4035-17.218,1.0609-3.6429.9287-7.0449,2.5895-10.579,3.8369-.9466.3341-1.8967.6477-2.8661.9098-.297.0803-3.2961.5817-1.8557.4437-.7151.0685-4.4581-.1176-6.361-.1861-10.4942-.378-19.2201,2.2383-28.1755,3.0894-9.7876.9301-18.9959,2.8633-28.523,5.101-3.6195.8501-7.2687,1.5731-10.9357,2.1856-1.014.1694-2.03.3247-3.046.482-2.6005.4026,2.1027-.2416-.5328.08-2.3491.2867-4.7029.5337-7.0618.7253-8.5569.6952-16.9647.4861-25.5095-.1499-1.8438-.1372.19.0329.4856.0812-.9397-.1534-1.8803-.2981-2.8159-.4753-1.9504-.3695-3.8793-.8223-5.7861-1.3752-3.7209-1.0789-7.3331-2.5135-11.0989-3.4399-10.0602-2.4748-19.9469-.4182-30.0078-1.8472.7592.1078,2.2355.4171-.8092-.2142-1.0746-.2228-2.1487-.4312-3.2205-.6703-2.1409-.4776-4.2649-1.0296-6.3857-1.5887-4.3439-1.1452-8.6684-2.3483-13.0535-3.33-19.5946-4.3867-39.3088-8.2036-58.807-13.0219-19.2666-4.7611-38.0717-11.0972-57.3402-15.8512-18.8889-4.6603-37.7356-9.1774-56.2756-15.1237-2.0163-.6467-4.0283-1.3096-6.0206-2.0274-.9943-.3583-1.9828-.7297-2.9693-1.1087-2.9294-1.1255-1.366-.5699-.7388-.2895-4.1904-1.873-8.2319-4.0755-11.9932-6.7103-.2545-.1783-2.812-2.0816-1.5473-1.1032,1.2624.9766-1.2152-1.0083-1.4547-1.2069-1.5825-1.3124-3.1342-2.6607-4.6841-4.0114-3.8875-3.3879-7.7951-6.7055-11.8978-9.834-3.6994-2.821-7.4353-5.6483-11.9883-6.8721-5.2028-1.3984-5.1161-.9125-9.8644-4.2212l5.5419,5.5419c-4.6435-6.2659-7.7913-13.9824-13.0841-19.6608-2.7845-2.9873-6.1146-5.4328-9.36-7.8844-3.4162-2.5807-3.8722-2.8953-7.0563-5.4186-11.6627-9.2423-23.2404-18.3167-33.5464-29.1004-4.5583-4.7696-8.975-9.6761-13.2071-14.7378-1.1193-1.3387-2.225-2.6888-3.3178-4.0493-.4665-.5807-.9297-1.164-1.3927-1.7475-.0395-.0498-1.5343-1.9826-.6152-.7819.918,1.1993-.5523-.7416-.5907-.7932-.4412-.5932-.8846-1.1846-1.3233-1.7797-1.167-1.5828-2.3145-3.1795-3.442-4.7907-7.4801-10.6899-14.0434-22.0136-19.5295-33.853-.6322-1.3643-1.2438-2.7376-1.8542-4.1118-1.1193-2.5198.2316.6772-.8029-1.8957-1.3406-3.334-2.6265-6.6883-3.8225-10.0771-2.457-6.9619-4.5373-14.0525-6.8489-21.0635-5.0556-15.3331-10.4679-30.5649-14.6878-46.1584-3.7905-14.0066-5.9362-28.2419-10.2922-42.1071-.9381-2.9859-1.8598-5.9776-2.6414-9.0089-.3668-1.4226-.705-2.8516-1.0024-4.2904-.1615-.7814-.7904-5.134-.5252-2.6324-.8301-7.8308-.2524-15.8323-.2493-23.6938.0059-15.3072-.3776-30.5572-.886-45.8537-.2469-7.4281-.4102-14.8643-.209-22.2955.0986-3.6425.284-7.2832.597-10.9137.142-1.6472.3-3.2948.5087-4.9351.2344-1.8419.0577-.3002.0021.055.2137-1.3644.4632-2.7222.6964-4.0833,2.6036-15.1991,2.242-31.6541,5.7154-45.0489.9351-3.6063,2.1051-7.1479,3.4169-10.6339,1.401-3.7231,3.4179-6.4841,4.7342-11.2638,1.1132-4.0426.6331-8.8437.8736-13.0167.092-1.596.2044-3.1905.3436-4.7832.0646-.7397.5587-5.3136.253-2.9943.9472-7.1865,2.7604-14.3195,5.3286-21.0944.9378-2.4738,1.7241-4.0752,3.482-7.3563,1.8419-3.4379,3.7963-6.8113,5.6057-10.2679,6.6973-12.7938,12.8057-25.8026,21.5754-37.3595,8.999-11.8592,14.837-25.6888,23.0876-38.05,4.1311-6.1893,8.0171-12.537,11.9764-18.8363,1.9722-3.1379,3.9588-6.2674,6.0048-9.3579.9314-1.4068,1.8736-2.8067,2.8323-4.1951.6328-.9164,1.2821-1.8207,1.9197-2.7336.409-.5855,1.4793-2.0245.4193-.6616,8.44-10.8526,19.7636-19.0587,29.1552-29.0185,5.3157-5.6374,9.9215-11.9277,14.641-18.059,2.4378-3.1671,2.3832-3.1356,4.9868-6.3863,2.1623-2.6997,4.3746-5.3599,6.6824-7.9368,10.165-11.3505,20.5328-18.1731,32.9506-27.0668,6.5388-4.6831,13.9811-10.4582,19.6529-14.752,4.2923-3.2494,11.1272-7.0638,16.3652-10.6111,1.4917-1.0102,2.929-2.096,4.3621-3.1871.9441-.7188,1.8798-1.4497,2.8187-2.1751,2.9801-2.3024,1.6236-1.2363.9617-.738,2.8748-2.1645,5.782-4.3114,9.0155-5.9193-2.0472,1.018,1.4319-.4909,2.1142-.7121,1.5421-.5,3.1072-.9336,4.6779-1.3339,3.7454-.9545,7.5463-1.6709,11.3353-2.4258,14.5919-2.907,27.8999-8.7731,41.7416-14.058,14.2776-5.4514,28.7281-10.5774,43.5661-14.2959,3.285-.8233,6.5885-1.5755,9.9096-2.2389,1.9085-.3812,3.8232-.7303,5.7433-1.0477.816-.1349,1.6328-.2647,2.4506-.3884-1.6738.2531.0753-.0189.7691-.0982,6.4051-.7323,12.8418-1.2361,19.2772-1.6096,13.4165-.7787,26.9255-.9525,40.3295.1446,1.7323.1418,3.4591.3223,5.1881.4969,3.0493.3079-1.3517-.2701,1.6082.1932,3.286.5144,6.5275,1.1799,9.7762,1.887,7.5626,1.646,15.1933,2.9424,22.8422,4.1144,15.5743,2.3864,31.2509,4.2855,46.6145,7.8608,15.3051,3.5616,30.4997,7.1518,46.0444,9.5708,8.3161,1.2941,16.6694,2.4108,25.0394,3.2953,1.9949.2108,3.9915.3986,5.9886.5861.8167.0767,1.6339.1654,2.4515.2317-.2524-.0205-2.24-.4189-.5608-.0756,1.2035.246,2.4085.4387,3.5994.7487.6627.1725,4.7686,1.7257,2.7146.7817-2.1253-.9768.9976.5543,1.5072.8215,1.2208.6402,2.4172,1.3267,3.6141,2.01,2.7583,1.5747,5.4714,3.2095,8.377,4.5024,7.471,3.3243,15.291,5.1717,22.9666,7.8978,14.6833,5.215,29.1457,11.3788,43.6125,17.1754,7.0713,2.8334,12.5585,5.3809,20.1398,8.5803,3.7903,1.5995,7.6057,3.1287,11.42,4.6696,3.172,1.2814,4.4246,1.7843,8.1462,3.6641,6.8128,3.4411,13.1272,7.8871,19.2883,12.3684,5.5594,4.0437,9.5476,7.2551,15.3797,12.2924,11.3412,9.7955,21.9641,20.4281,31.7965,31.7359,8.6598,9.9593,17.6703,19.0851,27.632,27.7582,9.5679,8.3303,19.3444,16.5132,27.745,26.0608.9486,1.0781,1.8787,2.1719,2.7875,3.2838.4551.5568.9126,1.1135,1.3518,1.6831-.407-.5278-1.5213-2.1161.1892.3372,1.8166,2.6053,3.5713,5.2356,5.1495,7.9943,3.5598,6.2223,7.2614,12.203,11.4646,18.0189,4.0095,5.5479,8.1783,10.9872,11.9199,16.7235,4.0084,6.1453,6.8558,12.7967,10.4634,19.1519,3.5301,6.2186,7.6668,12.0606,11.4773,18.105,1.905,3.0218,3.7438,6.0923,5.3668,9.2764.2571.5044,1.95,4.0827,1.1575,2.2277.7363,1.7234,1.3409,3.5151,1.9283,5.2935,2.3225,7.0316,3.8592,14.2873,5.528,21.4925,1.6458,7.106,3.8169,13.9673,5.8864,20.9485,1.0757,3.6288,1.88,7.3328,2.5098,11.0633.4583,2.7148.648,4.4678,1.0579,8.6745.8081,8.2923,1.573,16.5595,2.7657,24.8097,1.1602,8.0255,11.7532,13.1352,19.0024,10.7892,8.7817-2.8419,12.0327-10.4011,10.7892-19.0024Z" style="stroke-width:0px;"/><path d="M419.6065,294.1217c-8.6744,1.8337-16.9718,3.6659-25.1041,7.2177-5.4308,2.3719-10.0973,6.0071-15.3394,8.6971-11.9287,6.1212-21.6667,15.4917-32.6472,23.0331-12.2649,8.4235-21.9505,19.049-28.8516,32.3254-3.2229,6.2003-8.1468,12.9734-12.5709,18.2574-3.4706,4.1451-4.5481,8.5706-6.5693,13.4689-4.9153,11.9123-11.1663,23.5203-11.5595,36.5264-.1271,4.2027-1.5022,8.2384-1.9542,12.4255-.4953,4.5878-2.9954,8.0347-3.7991,12.4289-1.2018,6.5712.6527,13.6841-.2566,20.3449-.9935,7.2771-1.7558,13.7603-1.7592,21.2196-.0023,5.1079-.0024,10.2159,0,15.3238.0019,3.992-.9187,9.1964-.1439,13.0553.5815,2.8961,2.367,4.821,3.5696,7.495,2.906,6.4616,4.1517,13.2858,6.1692,20.0046,4.5362,15.107,12.1394,29.6173,21.1904,42.0794,4.1858,5.7633,6.811,11.3969,14.4154,11.5561,6.5965.1382,9.7556-1.3441,15.7677-3.9483-9.4484-.9339-13.782,8.6257-17.1573,15.4734-1.6599,3.3676-4.0206,6.1369-5.7703,9.5245-2.9855,5.7805-5.5347,11.7837-8.7168,17.4652-3.8921,6.9493-7.1965,13.8753-10.3258,21.187-3.0704,7.174-7.1181,13.4469-9.9015,20.783-2.2557,5.9452-5.5199,11.2464-7.7072,17.2287-2.4459,6.6895-8.4258,14.1849-8.0188,21.3705,8.2386,2.0305,19.6349.4314,27.3971-2.2971,6.6701-2.3446,13.2135-2.6908,19.9531-5.6777,7.1961-3.1892,14.0591-4.9752,21.1646-7.7419,4.0858-1.5909,8.5666-2.4566,12.7386-3.8846,4.023-1.377,8.0084-1.3289,11.8863-3.1892,6.6079-3.1699,16.0998-14.2675,23.2251-9.8915,1.7839,1.0956,2.7361,2.8497,4.687,3.8198,1.1686.5811,2.767.7574,4.0179,1.2903,5.4126,2.3058,10.8523,4.7658,16.3066,7.1018,7.7933,3.3378,15.186,7.3717,23.3585,9.5111,7.1157,1.8627,13.6003,6.1473,20.6305,7.2658,8.8679,1.4109,18.0427,3.9537,27.072,3.8401,9.3262-.1173,17.9906,2.8357,27.3048,2.0228,4.0361-.3522,7.3964-2.7077,11.2188-3.5561,4.9857-1.1066,9.8372-.2879,14.956-1.7795,8.4803-2.4712,17.1947-3.1992,25.7032-5.7258,8.1545-2.4215,15.0784-7.6021,23.1874-9.8123,4.4369-1.2093,6.7571-.8265,11.0133-2.7829,3.8376-1.764,7.8422-2.8924,11.6333-4.8115,2.5251-1.2782,5.0387-2.6009,7.6011-3.8024,4.9752-2.3328,8.2934-5.7353,13.0361-8.3204,4.4157-2.4069,7.9576-3.3977,11.64-7.1152,3.9875-4.0255,8.7396-7.4411,13.11-11.0513,3.9778-3.2859,5.9936-4.5866,8.8969-8.6622,2.2152-3.1098,4.5734-6.0472,6.7453-9.138,3.4011-4.8403,8.1873-8.7938,11.2053-13.9877,2.9599-5.0939,5.4448-10.6466,9.0288-15.4424,11.4507-15.3226,20.4638-33.0955,25.547-51.8044,4.3674-16.0744,10.6449-32.8673,10.5258-49.8877-.0589-8.4147-.0576-16.8399,0-25.2547.0253-3.6975.3745-7.4197-.4279-11.0615-1.1182-5.0749-.8073-9.6625-1.6409-14.8211-.6698-4.1448-2.91-8.0215-4.2288-12.0077-1.2833-3.8789-1.5475-7.8259-3.2134-11.5851-1.1139-2.5135-2.9161-4.2578-3.811-6.9392-.7113-2.1314-.7355-4.3356-1.5314-6.5181-1.2343-3.3843-2.8348-6.6265-3.9018-10.0519-2.0463-6.5696-3.4633-13.466-6.6329-19.6623-1.955-3.8218-4.6745-7.2409-7.3103-10.6403-3.9545-5.0999-6.7527-10.6424-10.5036-15.8788-2.9094-4.0616-6.5826-7.2159-9.1965-11.4224-2.7428-4.4139-4.6417-8.7151-6.2664-13.6543-1.4733-4.4789-3.7286-6.1833-6.6394-9.8171-4.7198-5.8921-7.6958-12.7527-13.55-17.5852-8.9305-7.3721-16.5978-16.9957-26.8836-22.6156-9.4644-5.1711-19.2991-9.6335-28.8531-14.4873-6.2862-3.1936-10.285-4.67-17.0254-6.5644-3.3577-.9437-6.5802-2.4226-9.908-3.3812-4.6889-1.3507-8.8612-3.3458-13.5153-4.8466-5.1574-1.6631-10.4684-2.0226-15.5246-3.2647-4.4598-1.0956-6.6945-2.0052-11.5421-1.9749-5.7359.0358-11.474-.0034-17.2101-.0034-4.4436,0-8.9364-.1765-13.3751-.0445-4.7018.1398-8.838,1.8115-13.4537,2.0124-4.4269.1927-7.7836-.1345-12.0167,1.3584-4.1878,1.4769-8.0667,3.2945-12.2488,4.6003-8.6379,2.697-17.5302,3.0843-26.2267,5.5375-5.046,1.4234-10.1144,1.8756-15.0041,3.7956-4.3794,1.7197-8.7451,3.7264-12.9471,5.8283-4.5517,2.2768-8.1502,4.6247-12.1021,7.7864-1.7518,1.4015-5.458,5.2767-7.6047,5.6709" style="fill:#48F775; stroke-width:0px;"/><path d="M419.6065,287.122c-4.5678.5554-9.1418,1.1171-13.6797,1.8848-.0568.0096-2.7009.436-1.0907.1966-1.0493.0249-2.0656.2044-3.049.5384.9103-.0934.8587-.0844-.1548.027-2.4671.3294-4.9388.6221-7.3893,1.0639-1.8174.3276-3.8335.615-5.5654,1.2837-1.2632.3277-.9866.3588.8298.0933-2.1131.0066-4.0826.5393-5.9085,1.5983l1.3744-.5221c-.4981.1247-.9957.2516-1.4926.3809-3.7749.9748-7.555,1.7566-11.3617,2.5862,4.0788.5336,8.1575,1.0672,12.2363,1.6008-1.3384-.6069-2.8999-1.4424-4.3132-1.8316-2.8116-.7743-5.9718-.6421-8.7907,0-2.2654.516-4.3445,1.9401-6.391,3.0358-1.9917,1.0664-3.9436,2.2054-5.8676,3.3893-3.8396,2.3627-7.5638,4.9055-11.3037,7.421-3.6285,2.4406-7.2864,4.8238-11.0392,7.0696-4.9651,2.9713-9.513,6.4294-14.0723,9.9887,1.3341-1.0307,2.6683-2.0615,4.0024-3.0922-8.5807,5.2863-15.6335,14.5033-21.3949,22.5409-4.6222,6.4484-8.1551,13.5185-13.0034,19.833,1.1-1.4238,2.2001-2.8476,3.3001-4.2714-3.4381,4.4177-7.335,8.4798-10.5029,13.1068-3.0704,4.4847-4.7487,9.8722-6.8207,14.8473.73-1.7297,1.4599-3.4595,2.1899-5.1892-3.5332,8.3002-7.7444,16.2663-10.8632,24.751-1.2183,3.3144-2.2707,6.6942-2.9904,10.154-1.1409,5.4841-1.3522,11.0196-2.0066,16.5452.2651-1.9732.5303-3.9465.7954-5.9197-.7707,5.3139-1.8986,10.4886-2.5657,15.8411.2654-1.9754.5309-3.9509.7963-5.9263-.3713,2.7084-1.3667,5.1544-2.3584,7.6824-1.6598,4.2312-2.2096,8.6116-2.5938,13.1605-.5029,5.9549.744,11.9036.0184,17.8572.2664-1.9827.5328-3.9654.7992-5.9481-.9684,7.0043-2.0217,14.0259-2.426,21.0926-.3215,5.6194-.1999,11.2655-.2126,16.8919-.0109,4.8174-.5764,9.6481-.4796,14.4542.1231,6.1085,1.4668,11.0296,3.995,16.4821.9932,2.142,2.3166,4.0955,3.2616,6.264-.7567-1.7931-1.5134-3.5862-2.2701-5.3793,2.9927,7.2156,4.3319,14.9553,6.7548,22.3593,2.8545,8.7228,6.5031,17.276,10.7137,25.4295,3.4714,6.7219,7.4946,13.0988,11.8759,19.2605,6.3468,8.9257,13.0572,17.8102,24.2707,20.7356.7253.1892,1.4789.2849,2.219.4067,4.1884.6887,7.7043.9938,11.8065,0,1.9865-.4813,4.0386-1.4935,5.8932-2.3479,1.5552-.7164,3.0377-1.541,4.4403-2.525,4.8165-3.3787,9.1205-7.2616,12.2084-12.3318-2.9331,2.2554-5.8662,4.5109-8.7992,6.7663.4882-.1876.9897-.3272,1.5047-.4188,6.1222-1.3978,11.2505-8.1051,10.9682-14.4062-.2933-6.5475-4.4207-12.668-10.9682-14.4062-10.5193-2.7926-19.9415.9004-27.8638,7.7792,2.5631-1.4938,5.1263-2.9876,7.6894-4.4814-2.9973,1.0541-6.0462,2.3057-8.2558,4.7127-1.2592,1.3717-2.3716,2.9909-3.4363,4.525.9247-1.1968,1.8494-2.3937,2.774-3.5905-3.6428,4.2161-6.4318,8.9278-9.7963,13.3207l3.0077-3.893c-.4838.6051-.9756,1.2004-1.4757,1.7921,1.3176-1.018,2.6353-2.036,3.9529-3.054-2.3269,1.7818-4.3495,3.2405-6.1193,5.5312-.8678,1.1232-1.6388,2.1713-2.4391,3.3116,1.0329-1.3369,2.0658-2.6738,3.0987-4.0108-4.5306,5.8417-8.7717,11.9772-12.1619,18.5545-2.8383,5.5067-6.0843,10.7854-8.8807,16.3177-2.6968,5.3354-4.9999,10.8601-7.7918,16.1464-3.6125,6.8401-6.9583,13.5539-9.8991,20.7353.7476-1.7716,1.4952-3.5431,2.2428-5.3147-1.3408,3.1421-2.9416,6.145-4.4643,9.1989-2.2306,4.4736-3.9979,9.1585-5.8889,13.7794.7548-1.7885,1.5095-3.577,2.2643-5.3656-4.4785,10.3368-10.9499,19.6248-10.6233,31.4437.2652,9.5949,6.768,19.4052,16.5163,21.6932,11.4728,2.6927,23.5064,1.9485,34.8766-.9151,4.1631-1.0485,8.1786-2.5163,12.3784-3.4577,2.3605-.5291,4.7291-1.0359,7.0521-1.7164,4.1632-1.2196,8.0861-3.1111,12.0747-4.7946-1.7979.7587-3.5958,1.5174-5.3937,2.2762,5.8622-2.405,11.945-4.1783,17.8821-6.3777,5.6709-2.1008,11.6781-4.058,17.5913-5.3386,6.6348-1.4368,12.9697-3.3954,18.5553-7.3924,3.5668-2.5524,6.9933-5.416,11.0583-7.1559-1.8063.7623-3.6127,1.5246-5.419,2.2869.9838-.3837,1.9629-.6761,3.0078-.8393-2.0109.2702-4.0218.5404-6.0327.8106.6567-.0665,1.2835-.0764,1.9413-.0206-2.0117-.2703-4.0234-.5406-6.0351-.8109.6545.1011,1.2506.2614,1.8677.5019-1.8084-.7631-3.6168-1.5263-5.4252-2.2894.5336.255.9756.5243,1.465.8625-1.5327-1.1841-3.0653-2.3683-4.598-3.5524,2.7252,2.2465,4.8974,4.8512,8.092,6.6527,3.2143,1.8126,6.6717,2.6865,10.0598,3.9549-1.8125-.7649-3.6251-1.5298-5.4376-2.2947,8.0201,3.4702,16.022,7.0028,23.9492,10.6798,5.3441,2.4788,10.7397,4.9204,16.2877,6.9059,3.9136,1.4006,7.9086,2.3942,11.7531,4.0083-1.831-.7727-3.6619-1.5454-5.4929-2.318,5.5227,2.3584,10.9941,5.1946,16.8348,6.6923,4.1578,1.0661,8.5042,1.6479,12.7189,2.4674,6.079,1.1821,12.2502,2.1947,18.4272,2.6587,4.6256.3475,9.1994.2753,13.8148.8899-2.0585-.2766-4.1171-.5532-6.1756-.8298,7.4914,1.0364,15.136,2.7024,22.7389,2.3142,4.3527-.2222,8.7764-.7612,12.8461-2.3707,2.4956-.987,4.8665-1.963,7.5307-2.399-2.0651.2775-4.1301.555-6.1952.8324,6.8114-.895,13.6331-.7131,20.345-2.5409,5.2222-1.4221,10.5626-2.2829,15.8665-3.3306,6.871-1.3572,12.9573-3.4648,19.4039-6.2566,4.4599-1.9314,8.7087-4.3083,13.1791-6.2167-1.8588.7844-3.7176,1.5688-5.5764,2.3533,3.0883-1.2686,6.2002-2.1491,9.4907-2.7067,4.9366-.8365,9.2003-2.9391,13.825-4.9108l-5.5794,2.3545c5.4972-2.2502,11.114-4.1875,16.4308-6.8687,3.6676-1.8496,7.5208-3.4945,10.9616-5.748,3.2219-2.1101,6.1961-4.5433,9.6166-6.3453,1.6817-.886,3.424-1.651,5.1064-2.5353,3.1189-1.6392,5.8086-3.8414,8.5531-6.0634,3.1309-2.5348,5.9305-5.4585,9.0836-7.9894,3.0344-2.4355,6.0895-4.8438,9.0927-7.3181,7.2276-5.9547,11.9533-14.5896,17.6153-21.9524-1.2166,1.5747-2.4332,3.1494-3.6498,4.7241,4.6364-5.8255,10.0549-11.0894,13.7258-17.635,2.8593-5.0983,5.2852-10.3931,8.7214-15.1493,6.8458-9.4757,12.7363-19.6116,17.3944-30.3402,2.9316-6.7522,5.7394-13.5399,7.9251-20.5733,1.8279-5.8819,3.3123-11.8769,4.9882-17.8042,3.8374-13.5724,7.3365-27.4922,7.6239-41.6774.1453-7.17-.1759-14.3638-.1811-21.5365-.0026-3.5292.0495-7.0554.0771-10.5841.0421-5.3827-1.1652-10.5918-1.8981-15.891.2588,1.9261.5176,3.8521.7764,5.7782-.6388-5.3402-.936-10.6472-1.713-15.9878-.7571-5.2038-3.1714-9.9289-5.2057-14.729.7275,1.7239,1.455,3.4479,2.1825,5.1718-1.6511-3.9369-2.3915-7.9494-3.5535-12.0254-.9441-3.3117-2.3113-6.7352-4.0024-9.7159-.9443-1.6643-2.1006-3.1639-2.9001-4.9128.7242,1.7162,1.4485,3.4323,2.1727,5.1485-.6912-1.8244-.8811-3.7007-1.345-5.5815-.4026-1.632-1.069-3.1784-1.7126-4.7269-1.3871-3.3373-2.6587-6.6485-3.6719-10.121-2.3955-8.2094-4.7748-16.6916-9.3119-24.0252-1.775-2.8689-3.881-5.5087-5.9204-8.1895-2.1741-2.8579-4.0662-5.9-5.9477-8.9544-2.7055-4.392-5.5606-8.5125-8.7937-12.5542-2.0864-2.6083-4.3959-5.0266-6.4566-7.6557,1.1197,1.4492,2.2393,2.8985,3.359,4.3477-2.3656-3.1458-4.1998-6.6516-5.7672-10.2531.7232,1.7136,1.4463,3.4272,2.1695,5.1408-2.0237-4.817-3.2591-10.0628-5.949-14.5729-2.4644-4.1322-5.9381-7.5609-8.8878-11.3326,1.1249,1.456,2.2499,2.9121,3.3748,4.3681-4.7031-6.2141-8.3849-13.054-13.7087-18.8307-2.0441-2.218-4.4754-4.0509-6.6906-6.0922-2.4495-2.2572-4.8185-4.5994-7.2252-6.9017-5.7292-5.4809-11.8391-10.8599-18.6675-14.9273-6.1782-3.6802-12.7701-6.7245-19.2142-9.9023-6.0673-2.9921-11.9719-6.3678-18.1947-9.0293-7.3089-3.1261-14.8038-5.5156-22.2643-8.2284-3.2042-1.1651-6.4338-2.1868-9.6008-3.4627-3.4149-1.3758-6.8136-2.7271-10.4076-3.5665-3.2396-.7567-6.5347-1.2547-9.7882-1.9466-2.9417-.6257-5.808-1.5631-8.7798-2.0472-9.7498-1.5884-19.5801-1.0226-29.4204-1.0931-4.1262-.0296-8.2986-.2721-12.4193.0139-5.5579.3857-10.8171,1.7324-16.2765,2.5668,2.0172-.271,4.0343-.5421,6.0515-.8131-3.2953.4187-6.6245.2097-9.9261.5587-5.6455.5968-10.2661,1.6644-15.4586,3.7369-7.1031,2.8351-14.1659,4.533-21.6937,5.8116-7.3586,1.2499-14.6707,2.9754-21.9181,4.7549-5.4253,1.3321-10.6054,3.7936-15.6828,6.044-3.399,1.5065-6.788,3.0894-10.0472,4.881-4.6391,2.5502-8.8179,5.8496-12.8095,9.3144-2.2118,1.9199-4.1131,4.171-6.4014,6.003l4.4241-3.4181c-1.7482,1.2893-3.6038,2.6049-5.2152,4.0616,1.4655-1.1322,2.931-2.2645,4.3965-3.3967l-.4185.2075c1.7297-.73,3.4595-1.4599,5.1892-2.1899-.2464.1143-.5025.1983-.7685.2522-5.242,1.367-10.2606,5.3318-12.9825,9.9831-2.7248,4.6563-3.8792,11.5188-2.1899,16.739,3.6653,11.3262,14.9379,18.2454,26.7222,15.1724,2.2224-.5795,4.3209-1.6307,6.3763-2.6495-1.7297.73-3.4595,1.4599-5.1892,2.1899,6.3081-2.0709,10.5716-5.8396,15.714-9.8853-1.5,1.1589-3.0001,2.3179-4.5001,3.4768,6.8225-5.2248,14.7928-9.0619,22.6574-12.4203-1.8078.7629-3.6156,1.5258-5.4234,2.2887,4.8872-2.0504,9.7684-3.1529,14.922-4.2921,5.2311-1.1563,10.3603-2.4647,15.6542-3.3534,5.1215-.8597,10.2561-1.7342,15.1898-3.3987,4.9127-1.6574,9.6333-4.2572,14.778-5.118-2.0164.2709-4.0328.5419-6.0492.8128,3.2733-.4371,6.5753-.2234,9.8564-.5397,5.2401-.505,10.2703-1.7567,15.4541-2.4903-2.0178.2711-4.0356.5423-6.0534.8134,6.0984-.6968,12.4053-.1532,18.5344-.1385,6.0141.0144,12.2341-.4424,18.2152.2138-2.0205-.2715-4.0409-.543-6.0614-.8145,4.6935.6427,9.2216,2.1907,13.9139,2.925,5.5175.8634,10.6261,2.232,15.8616,4.1673,5.0807,1.8781,10.2911,3.5496,15.4639,5.1564,4.6829,1.4546,9.3649,2.6311,13.8985,4.5427-1.7564-.7412-3.5127-1.4824-5.2691-2.2236,7.1058,3.0717,14.0472,6.6147,21.003,10.0112,6.8139,3.3272,13.7871,6.5496,19.8455,11.1614-1.4667-1.1332-2.9334-2.2663-4.4001-3.3995,4.5568,3.55,8.6738,7.5933,12.8625,11.5593,4.0988,3.881,8.702,7.2673,12.1834,11.7417l-3.382-4.3774c2.2305,2.959,4.1513,6.1264,6.2794,9.1565,2.9376,4.1828,6.3203,7.9667,9.4936,11.9521-1.1238-1.4545-2.2476-2.9091-3.3713-4.3636.9112,1.2056,1.6548,2.4412,2.2733,3.8215-.724-1.7157-1.448-3.4313-2.172-5.147,2.5858,6.4734,4.7703,13.1122,8.3691,19.1291,3.557,5.947,8.5567,10.71,12.7596,16.1475-1.1178-1.4469-2.2357-2.8937-3.3535-4.3406,2.3713,3.2084,4.4108,6.6345,6.5462,9.9997,2.9714,4.6827,6.4174,8.9732,9.8089,13.3596-1.1139-1.4418-2.2278-2.8835-3.3417-4.3253,2.6672,3.4854,4.9866,7.0675,6.7006,11.1207-.7192-1.7042-1.4384-3.4085-2.1576-5.1127,2.7994,6.947,4.0667,14.3811,6.8753,21.3213.6746,1.6668,1.3993,3.317,2.0046,5.0108.6199,1.7348.8383,3.5151,1.2274,5.3028.7047,3.2378,2.1608,6.5528,3.8419,9.402.8515,1.4432,1.8133,2.7939,2.5334,4.3144-.7252-1.7186-1.4505-3.4371-2.1757-5.1557,1.6867,4.1008,2.0443,8.5619,3.555,12.7182,1.4256,3.922,3.301,7.585,3.912,11.7579-.2583-1.9221-.5165-3.8442-.7748-5.7662.3441,2.7269.4541,5.4666.67,8.2046.3509,4.4492,1.1952,8.8269,1.847,13.2319-.2591-1.9279-.5181-3.8559-.7772-5.7838.4039,3.7114.113,7.4549.0755,11.1786-.0378,3.7583-.0423,7.5171-.0826,11.2751-.0807,7.5232.1526,15.0528-.8295,22.5292.2629-1.9562.5257-3.9125.7886-5.8687-1.4011,9.9438-4.2838,19.5648-7.1975,29.1494-2.772,9.1186-5.2663,18.2657-8.9348,27.081.7606-1.8024,1.5213-3.6049,2.2819-5.4073-4.035,9.5517-8.9866,18.6938-14.7921,27.2862-2.8604,4.2335-6.1423,8.1809-8.7639,12.5709-2.6759,4.4809-4.822,9.3182-8.0011,13.479,1.2108-1.5671,2.4215-3.1343,3.6323-4.7014-3.8433,4.8331-8.0951,9.2097-11.8376,14.1516-2.8984,3.8272-5.7051,7.7257-8.6031,11.5528,1.22-1.5791,2.4401-3.1583,3.6601-4.7374-2.9477,3.7214-6.8442,6.5704-10.5305,9.516-2.135,1.706-4.2939,3.3839-6.3752,5.1558-2.2263,1.8954-4.2086,4.0836-6.5123,5.8801,1.5777-1.219,3.1555-2.4379,4.7332-3.6569-2.2743,1.6489-4.787,2.7982-7.2904,4.0455-2.7818,1.386-5.3243,3.0611-7.8452,4.8704-5.2659,3.7793-11.1812,6.7727-17.1098,9.3875,1.8602-.785,3.7205-1.5701,5.5807-2.3551-5.2137,2.1978-10.5014,4.1665-15.6894,6.4452,1.8597-.7848,3.7193-1.5696,5.579-2.3543-4.7417,1.8781-9.9066,2.0749-14.6865,3.9711-6.7898,2.6935-13.1349,6.18-19.8333,9.0406,1.858-.7841,3.716-1.5682,5.574-2.3523-5.2845,2.1714-10.8784,3.2894-16.4716,4.3484-2.724.5158-5.4517,1.015-8.1592,1.6131-2.9816.6586-5.8953,1.6454-8.9165,2.1005,2.0657-.2776,4.1313-.5551,6.197-.8327-5.9597.7204-11.8494.5595-17.7735,1.9211-3.607.8291-6.8042,2.8217-10.4677,3.4746l6.1929-.8321c-4.794.5706-9.6379.0129-14.397-.6164l6.1808.8305c-5.7015-.7677-11.4637-1.7916-17.2311-2.0093-4.1228-.1557-8.1475-.1522-12.2532-.6991l6.1522.8267c-9.4984-1.3537-19.2461-2.7814-28.1206-6.5132,1.8322.7732,3.6643,1.5464,5.4965,2.3196-4.9283-2.0853-9.8984-4.4813-15.0857-5.917-3.6546-1.0115-7.1887-2.2342-10.6889-3.6958,1.8243.7699,3.6486,1.5397,5.4728,2.3096-5.7662-2.4517-11.4551-5.087-17.2089-7.5698-2.9985-1.2939-5.9895-2.6049-8.9908-3.8923-2.889-1.2392-5.7502-2.5994-8.6965-3.6804-1.3256-.4863-2.7177-.7273-4.023-1.2715l5.4329,2.2927c-.4171-.2074-.8091-.4545-1.1759-.7415l4.6017,3.5553c-5.0435-4.1972-9.5482-8.6137-16.3293-9.8476-5.6041-1.0198-9.3498-1.1107-14.9997.2278-3.0362.7193-5.9237,2.1544-8.704,3.5368-5.3675,2.6687-9.5222,7.3074-14.9946,9.7662,1.8038-.7612,3.6076-1.5224,5.4115-2.2837-3.8267,1.4924-7.9814,1.8711-11.8896,3.1224-3.705,1.1863-7.5179,2.0217-11.1773,3.3514-9.4697,3.4411-18.8893,6.723-28.1586,10.7059,1.7975-.7586,3.5951-1.5171,5.3926-2.2757-5.3714,2.1499-11.0801,2.9392-16.6081,4.5503-4.7285,1.3781-9.2427,2.8509-14.1492,3.5348l5.9874-.8045c-4.1311.5251-8.2841.6875-12.4274.2075l5.982.8038c-1.1159-.1523-2.2145-.3482-3.3115-.6019,5.5054,7.2311,11.0109,14.4621,16.5163,21.6932-.0283-.9147.0152-1.7983.123-2.7069-.2678,1.9931-.5356,3.9862-.8034,5.9794.3474-2.1345,1.0267-4.1434,1.8636-6.1319-.7555,1.7902-1.5109,3.5803-2.2664,5.3705,1.1621-2.6311,2.5352-5.1532,3.8303-7.7192,2.0443-4.0507,3.6233-8.306,5.3343-12.502-.7546,1.788-1.5091,3.576-2.2637,5.3641,1.3299-3.1446,2.8442-6.2076,4.2507-9.3182,2.1019-4.6484,3.8723-9.4127,5.8046-14.1254-.745,1.7655-1.4901,3.5309-2.2351,5.2964,1.5438-3.651,3.3348-7.1812,5.0741-10.741,2.4916-5.0995,4.5978-10.3602,6.791-15.5928l-2.1921,5.1945c2.668-6.3073,5.6082-12.4661,8.8028-18.5229,3.8268-7.2554,6.4331-14.9406,9.5105-22.5167-.6778,1.6062-1.3556,3.2123-2.0334,4.8185,1.5015-3.5134,3.8308-6.6765,4.7696-10.4173-.6563,1.5552-1.3126,3.1104-1.9689,4.6656,2.3833-4.9109,4.0018-10.0565,6.0669-15.0815l-1.8248,4.324c.3717-.8739.7241-1.8124,1.2101-2.632,1.9532-3.2936,2.8702-6.5281,3.113-10.3427-.793,2.9317-1.5861,5.8634-2.3791,8.7951.5147-.9727,1.0766-1.8982,1.7254-2.7879l-2.6283,3.402c.7827-.9988,1.6226-1.8729,2.6255-2.6521-1.0868.8397-2.1736,1.6793-3.2604,2.519.7478-.5273,1.5089-.9613,2.346-1.3284-1.2424.5243-2.4848,1.0486-3.7272,1.5729.923-.3497,1.8355-.5886,2.809-.7437-1.3343.1793-2.6685.3586-4.0028.5379l.6363-.0697c-2.5135-9.28-5.027-18.56-7.5404-27.84-.42.3142-.866.5856-1.338.8142,3.7818-.4948,7.5636-.9895,11.3453-1.4843-2.7679-.5978-5.5621-.7568-8.3586-1.0921l4.5438.6106c-2.0814-.2852-4.0411-.8318-5.9855-1.627l4.8464,2.0452c-2.7572-1.2097-5.1687-2.8291-8.1519-3.6681-1.2383-.3483-2.4612-.6427-3.664-1.1433l5.3285,2.2487c-.8867-.4282-1.6847-.9261-2.4638-1.5258,1.5106,1.1671,3.0212,2.3342,4.5318,3.5013-1.0603-.8962-1.9629-1.8904-2.8193-2.9813,1.1734,1.5188,2.3468,3.0375,3.5202,4.5563-8.3725-11.1636-15.7947-23.246-21.2331-36.1127.7594,1.7996,1.5189,3.5992,2.2783,5.3988-2.7092-6.52-4.7448-13.189-6.5693-20.0013-.9014-3.3654-1.8403-6.7311-3.1161-9.9774-1.1938-3.0377-2.3491-6.1239-3.8992-8.999-.7589-1.4076-1.6348-2.7328-2.3042-4.1897.7561,1.7917,1.5122,3.5835,2.2684,5.3752-.3467-.8797-.5902-1.7388-.7544-2.6702l.8035,5.98c-.6544-5.1044.2324-10.4168.2184-15.5551-.0165-6.0751-.1896-12.1749.1262-18.244.2936-5.642,1.3228-11.1966,1.7211-16.8186.422-5.9568-.8368-11.8953-.095-17.8467l-.7975,5.9353c.4133-2.5676,1.3382-4.9085,2.2702-7.3215,1.589-4.114,2.0017-8.3124,2.5272-12.7024-.2654,1.9753-.5308,3.9505-.7962,5.9258.4225-2.9108,1.1292-5.7688,1.5637-8.6774.6864-4.5955.8759-9.1679,1.4659-13.7546-.2649,1.9716-.5299,3.9433-.7948,5.9149,1.0294-7.0624,3.5403-13.6671,6.1247-20.2789,2.4936-6.3795,4.7883-12.8633,7.3583-19.2062-.7237,1.7148-1.4473,3.4297-2.171,5.1445.9021-2.1054,1.9827-4.056,3.3715-5.8797-1.1126,1.4401-2.2252,2.8801-3.3378,4.3202,5.2953-6.7342,10.5383-13.5702,14.5151-21.1904,3.0736-5.8896,6.1694-11.5693,10.2169-16.8682l-3.1627,4.0936c3.7565-4.8313,8.2027-9.0099,11.8805-13.8899-1.0307,1.3341-2.0615,2.6683-3.0922,4.0024,4.8845-5.0259,10.4584-9.2014,15.7169-13.8094,5.4751-4.7978,10.7816-9.7882,16.5372-14.2557-1.1347.8767-2.2694,1.7534-3.4042,2.63,1.277-.9763,2.5605-1.9341,3.9075-2.8105,2.6316-1.7121,5.1019-3.4631,6.6208-6.338,1.5175-2.8721,1.972-5.4676,2.297-8.7448-1.5504,3.7429-3.1007,7.4858-4.6511,11.2287,2.4941-2.6253,5.0162-5.1847,7.4056-7.9098.0776-.0885,1.453-1.8033,1.5492-1.7562-1.8905,1.5155-1.4701,1.204,1.2612-.9343,2.0704-2.7929,2.4117-3.1798,1.0239-1.1605l.593-.4938c.9029-.724.7982-.6455-.3139.2355.5725-.67,1.6757-1.1761,2.412-1.661,1.5041-.9907,3.0431-1.9266,4.6089-2.8163.4746-.2692.9516-.5342,1.4308-.795-1.0865.6626-.5666.477,1.56-.5566-1.2753.5308.9267-.3619,1.1038-.4252,3.7171-1.3288,7.4897-2.4943,11.2635-3.6492,3.3486-1.0248,5.4817-4.1987,5.0139-7.6801-.4168-3.102-3.4158-6.4899-6.8747-6.0693h0Z" style="fill:#48F775; stroke-width:0px;"/><path d="M440.7643,471.078c4.1621-.0259,9.1591-6.4125,11.0511-9.6721,2.1927-3.7776,4.1664-6.0048,4.3553-10.5051.4073-9.7019.2334-18.6829-2.4215-27.8642-1.661-5.7444-3.5077-8.9743-6.725-13.892-3.3781-5.1634-2.0076-10.2357-7.153-14.2752-8.5018-6.6744-21.3906-5.6762-31.3774-3.1247-7.0226,1.7941-14.3667,5.7572-18.7503,11.9634-2.2152,3.1363-4.5724,7.1025-6.6635,10.56-2.9957,4.9535-8.8374,10.5008-9.7355,16.411-.3354,2.2073-.3617,3.8428-.8623,5.7771-.5331,2.0598-.9873,3.3683-.955,5.7771.0686,5.1121-.0111,10.2303-.0067,15.343.0054,6.3391-.4714,12.1811,1.9268,18.1617,2.0206,5.0388,3.8184,10.0658,6.1949,15.0025,6.3698,13.2323,11.7998,25.688,20.7299,37.5617,4.7558,6.3234,11.0205,11.7421,15.432,18.1631,2.058,2.9954,3.0154,6.6788,5.5887,9.3435,4.3447,4.4992,10.3645,6.9234,14.6571,11.6808,5.6884,6.3042,11.0968,11.9196,17.795,17.1159,3.0028,2.3295,5.3072,5.7056,8.5051,7.7486,3.0348,1.9389,6.157,3.1387,9.1825,5.1985,5.4203,3.6902,9.0585,7.2058,15.3497,9.5623,3.2687,1.2244,6.321,2.6705,9.3399,4.4223,3.3886,1.9664,7.5487,2.8848,10.7398,4.9214,2.9346,1.8728,3.6546,4.1217,7.3208,4.7848,2.5246.4566,5.8337-.1325,8.4141-.1371,6.9118-.0125,12.9018-.2843,19.5749-1.5023,6.3607-1.1609,11.0009-2.2822,16.2501-6.5682,6.0673-4.9539,11.9372-7.8161,18.7876-11.1484,6.3499-3.0889,11.3793-7.53,16.3647-12.5212,5.3282-5.3343,7.4215-9.4491,10.0482-16.2465,2.3101-5.9782,4.51-13.5688.7706-19.2276-5.4389-8.2306-13.7857-14.0963-20.2872-21.2828-4.4213-4.8871-9.0113-12.0638-15.4609-14.4944-6.5753-2.4779-13.3085-.406-19.5425,2.0109-3.0894,1.1977-7.4276,1.7668-10.336,3.2582-3.6509,1.8722-3.6859,3.3527-8.1284,3.5116-6.6321.2372-12.4889-.1402-18.8065-1.9167-11.9924-3.3723-18.8024-13.7867-28.4236-21.2023-6.7911-5.2343-14.1249-11.8496-19.4193-18.4558-2.6106-3.2574-5.4595-6.2357-8.0343-9.4529-2.3599-2.9487-3.5569-7.3279-7.5962-8.6366" style="stroke-width:0px;"/><path d="M440.7643,477.7156c5.3636.3307,10.3963-3.6077,13.9212-7.2209,1.696-1.7385,3.1441-3.6824,4.5827-5.6346.7029-.9538,1.4393-1.883,2.1276-2.8476,1.0438-1.463,1.7573-2.874,2.4315-4.5782l-.8881,2.1045c.7932-1.6307,1.6237-3.2328,2.2033-4.9648.4188-1.2515.6834-2.563.9843-3.8467.3065-1.308.5985-2.6196.8681-3.9358.4504-2.1985,1.166-4.6064,1.11-6.8179-.1409,1.0483-.2817,2.0966-.4226,3.1449.7357-4.6848,1.3641-9.4188,1.4217-14.1683.0588-4.8493-.502-9.7205-1.374-14.4837l.572,4.2567.0289-.3236c-.1926-1.433-.3851-2.8661-.5777-4.2991-.0891-.271-.2029-.5307-.2871-.8045-.1307-.4248-.2548-.851-.3938-1.2732-.3093-.9393-.6571-1.8652-1.0334-2.7797-1.3405-3.258-2.8437-6.405-4.2495-9.6255.5904,1.3991,1.1808,2.7981,1.7712,4.1972-.8717-2.147-1.1691-4.3971-1.5199-6.6704-.5537-3.5883-1.7572-7.2277-3.8176-10.2237-1.4744-2.1439-3.1303-4.4724-5.1383-6.2295-2.0131-1.7616-4.1569-3.4462-6.4069-4.8993-3.2513-2.0999-6.9968-3.547-10.652-4.7491,1.617.6824,3.2339,1.3647,4.8509,2.0471-2.0344-1.0512-4.2521-2.0755-6.5277-2.4719-2.3082-.4021-4.6728-.6833-6.9789-.9601-1.3443-.1614-2.6932-.2582-4.0471-.2839-4.4412-.084-8.8406.5971-13.225,1.2209-2.5901.3685-5.2233.8126-7.739,1.5463-2.1678.6323-4.3245,1.6709-6.3563,2.6605-.584.2844-1.1611.5832-1.7299.8971-2.5757,1.4216-5.2274,3.1836-7.2992,5.2022,1.3108-1.0127,2.6216-2.0255,3.9324-3.0382-.5537.2811-1.0323.6688-1.527,1.042-1.6358,1.2338-3.4055,2.5552-5.0155,3.9105-.9292.7822-1.8157,1.6155-2.6479,2.5004-1.806,1.9204-3.4006,4.0815-4.9533,6.196-.751,1.0227-1.4295,2.0924-2.0197,3.2159-1.287,2.4496-2.3935,4.9975-3.4913,7.5358-.559,1.2924-1.1067,2.5897-1.6629,3.8833-.9372,2.1798-2.3203,4.3084-2.8707,6.6038l1.5329-3.6325c-2.1781,2.9897-4.4821,6.0406-6.0995,9.38-.8885,1.8344-1.7135,3.7172-2.3713,5.6463-.2739.8031-.4124,1.6329-.6604,2.4413-.5841,1.9037-.9777,3.8597-1.7268,5.7103.5258-1.246,1.0517-2.492,1.5775-3.7381-.9399,2.2243-2.0193,4.4118-2.7729,6.7082-.8298,2.5288-.9423,5.2854-1.2909,7.8965.198-1.4738.3961-2.9476.5941-4.4213-.3035,2.2461-.7973,4.4706-.8619,6.7457-.0308,1.0852-.0789,2.1701-.1227,3.2548-.0814,2.0151-.1708,4.03-.2535,6.0451-.1527,3.7221-.4224,7.4589-.3995,11.185.0197,3.2127.5165,6.4534,1.1058,9.6021.3413,1.8238.893,3.5681,1.5851,5.2872,1.9432,4.8267,3.8571,9.656,5.9101,14.4387,1.4862,3.4624,3.3039,6.7686,5.0301,10.1152,1.6451,3.1894,3.2941,6.3772,5.0041,9.5325,3.4329,6.3342,7.273,12.3768,11.2561,18.3732,2.9386,4.424,6.2126,8.6346,9.6929,12.6447,2.6634,3.0689,5.4228,6.0555,7.9211,9.2637l-2.6549-3.4363c1.4806,1.9258,2.8383,3.8931,3.894,6.0859.5186,1.0771.9998,2.1728,1.5514,3.2338,1.1763,2.2631,2.7804,4.2145,4.3922,6.196,2.2907,2.8162,5.4778,4.9831,8.3272,7.1374,1.8992,1.4359,3.8784,2.7619,5.7718,4.2058-1.1842-.9149-2.3685-1.8299-3.5527-2.7448,3.7591,2.9093,6.6334,6.6684,9.8436,10.1401,3.2839,3.5515,6.7275,6.9579,10.4219,10.0836,1.8255,1.5445,3.5541,3.0824,5.184,4.8366,2.5355,2.7287,5.2511,5.0545,8.3436,7.1946,2.0091,1.3903,4.2212,2.4549,6.336,3.6685,2.1569,1.2378,4.1396,2.7108,6.1108,4.221,1.9734,1.5118,3.9277,3.0552,6.016,4.4081,3.5166,2.2782,7.4107,3.7455,11.2785,5.3319-1.5166-.64-3.0332-1.28-4.5498-1.92,1.7579.7965,3.5578,1.5412,5.3484,2.2613l-4.555-1.9222c2.5068,1.061,4.928,2.3169,7.2675,3.7067,3.5001,2.0793,7.3748,3.4503,11.1196,5.0163-1.5416-.6506-3.0833-1.3011-4.6249-1.9517,1.7765.7515,3.5302,1.552,5.0933,2.6964-1.3136-1.0149-2.6273-2.0298-3.9409-3.0447,1.2045.9344,2.2182,2.075,3.3922,3.0438,3.2734,2.7015,4.324,3.4935,7.8397,4.9772,1.6418.6929,3.0182,1.3606,4.746,1.6297,2.5491.3969,5.1173.8481,7.7056.804,1.0594-.018,2.1166-.0913,3.1746-.1424,2.0726-.1,4.1524-.0478,6.2271-.0947,5.8737-.1328,11.6233-.8078,17.4418-1.6392,3.7342-.5335,7.5507-1.1874,11.1287-2.4118,2.3524-.8049,4.6465-1.8337,6.9099-2.8454.8913-.3984,1.7608-.8402,2.6022-1.3358,3.3071-1.9479,6.1773-4.5519,9.2023-6.8969-1.3345,1.031-2.669,2.0621-4.0035,3.0931,4.7765-3.6509,10.0509-6.4644,15.4218-9.1279,6.7225-3.3338,12.7456-7.8049,18.2421-12.918,2.0812-1.936,4.1403-3.933,5.994-6.0905,2.6337-3.0654,5.2318-6.3241,7.1965-9.879,1.9524-3.5327,3.4308-7.3513,4.9024-11.095,1.0333-2.6287,2.0038-5.296,2.6227-8.0568.6475-2.8882,1.0335-5.87,1.2645-8.8101.2352-2.9929-.3255-5.977-.7746-8.924-.6422-4.2144-2.6608-8.2777-5.2028-11.6731-2.7119-3.6224-5.4615-7.1039-8.6526-10.3025-2.0161-2.0209-4.1221-3.9489-6.2154-5.8889-4.0396-3.7439-7.7247-7.6589-11.2538-11.8819-1.7182-2.056-3.4822-4.0933-5.4911-5.8737-2.0641-1.8293-4.2342-3.5991-6.5776-5.0535-2.3241-1.4424-4.9845-2.4523-7.5133-3.3926-3.1219-1.1608-6.7662-1.5101-10.0088-1.7035-3.3179-.1978-6.8528.4336-10.0484.9975-3.5206.6212-6.7816,1.9737-10.0868,3.278-2.8487,1.1242-5.8795,1.6878-8.7228,2.8322-2.7275,1.0978-5.3584,2.0761-7.7214,3.7953-.8289.6031-1.6189,1.2405-2.5567,1.6715l4.3108-1.8192c-.7079.2933-1.4322.4615-2.1888.5744,1.5937-.2142,3.1875-.4283,4.7812-.6425-2.6997.3278-5.468.3184-8.1833.2717-1.3054-.0225-2.6081.0377-3.9142.0293-1.3657-.0089-2.7419-.1797-4.1037-.1452,1.4972.2012,2.9944.4024,4.4916.6035-2.444-.4972-4.7963-1.0562-7.1951-1.7273,1.3165.5556,2.6331,1.1112,3.9496,1.6667-1.6725-.714-3.3333-1.5714-5.0951-2.0412-.4907-.1309-.9782-.2737-1.4619-.4287-.9477-.3037-1.8775-.6564-2.7959-1.0393,1.2415.5239,2.4831,1.0479,3.7246,1.5718-1.7176-.7341-3.4332-1.837-5.237-2.1582,1.2108.511,2.4216,1.0219,3.6325,1.5329-1.0351-.7413-2.3407-1.1884-3.4698-1.7825-2.0773-1.0932-4.0898-2.4808-6.4038-3.0203,2.0059,1.1691,4.0118,2.3381,6.0177,3.5072-2.3977-2.1968-4.6622-4.5359-7.018-6.7771-2.4342-2.3158-5.0164-4.4075-7.6169-6.5293-6.031-4.9209-11.8129-10.2742-16.6075-16.4264l2.2115,2.8625c-3.2516-4.2209-6.6768-8.2911-9.9477-12.4934.7552.9775,1.5104,1.955,2.2656,2.9325-1.4148-1.8381-2.3855-3.9044-3.6418-5.8418-.8973-1.3837-1.9569-2.6757-2.9878-3.9575-.3732-.464-.7548-.913-1.2004-1.3106-2.7967-2.4957-5.3495-3.9773-8.887-5.2136-1.9731-.6186-3.9462-.707-5.9193-.2651-1.9755.0896-3.8152.6768-5.5191,1.7615-3.0792,1.8019-6.0158,5.3325-6.8218,8.8714-.8655,3.7999-.6782,8.0653,1.4964,11.4383.7737,1.0014,1.5474,2.0029,2.3211,3.0043,1.8522,1.8397,4.0356,3.1122,6.5503,3.8175.2991.1045.5921.2223.8906.3287-1.1799-.4979-2.3597-.9958-3.5396-1.4937.5499.2624,1.0502.5716,1.5336.943-.9962-.7697-1.9924-1.5393-2.9886-2.309.6146.5095,1.1498,1.0786,1.6493,1.7004-.7662-.9917-1.5324-1.9834-2.2986-2.9751.9284,1.2052,1.6892,2.5193,2.5312,3.7833,1.6372,2.4579,3.5561,4.736,5.537,6.923,2.801,3.0924,5.5514,6.2419,8.3849,9.3026,6.3565,6.8663,13.4978,12.6717,20.8926,18.3717l-2.7912-2.1565c4.3248,3.3762,8.1946,7.2927,12.2347,10.9943-1.1691-2.0059-2.3381-4.0118-3.5072-6.0177.6116,1.8252,1.1943,3.2044,2.2641,4.6386,1.0967,1.4703,2.2237,2.9192,3.3594,4.3592,1.7254,2.1877,3.2625,3.5613,5.6758,5.2897l-5.4553-5.4553c1.1893,2.0877,2.9321,3.8657,4.7553,5.4177,1.8936,1.6119,3.8382,3.3029,5.9698,4.5873.491.2959,1.0384.5293,1.5629.7608,1.8531.818,3.7208,1.6439,5.6278,2.3346,1.4248.516,2.9004.9924,4.3845,1.3025-1.3454-.5677-2.6907-1.1355-4.0361-1.7032,2.473,1.087,4.6627,2.0173,7.2089,2.6594,1.971.497,3.9248.8207,5.9441,1.092,3.3319.4477,6.6338.6509,9.995.6298,4.9311-.0311,9.3819-1.0245,13.7299-3.3532,1.5842-.8485,2.964-1.9596,4.6323-2.6755-1.4503.612-2.9006,1.2241-4.3509,1.8361,2.9035-1.1614,6.0295-1.5259,9.0063-2.4383,3.4348-1.0528,6.7309-2.294,10.3113-2.8045l-4.9899.6705c1.9695-.25,3.9247-.2923,5.8967-.0414-1.678-.2255-3.356-.451-5.0341-.6764,1.4415.2177,2.8231.5873,4.1797,1.1218-1.5175-.6404-3.0351-1.2808-4.5526-1.9212,1.6529.6986,3.0997,1.6773,4.516,2.7677-1.2945-1.0001-2.5891-2.0003-3.8836-3.0004,5.2387,4.2216,8.8948,10.052,13.6277,14.7913,5.2546,5.2617,11.0757,9.9799,15.6484,15.8876-1.0062-1.3023-2.0123-2.6046-3.0185-3.9069,1.0665,1.4019,2.1112,2.8259,2.8069,4.4535-.6495-1.5391-1.299-3.0781-1.9485-4.6172.3914.9989.6545,2.0178.8152,3.0777-.2304-1.7144-.4607-3.4288-.6911-5.1433.2135,1.6902.1576,3.3674-.0661,5.0538.2307-1.717.4614-3.4341.6922-5.1511-.6141,4.1445-2.141,8.0842-3.7611,11.9256l1.9607-4.6462c-1.3777,3.2264-2.9961,6.2989-5.1342,9.0907l3.0508-3.9488c-3.4086,4.3646-7.6861,8.2475-12.0584,11.6271,1.3229-1.022,2.6457-2.0441,3.9686-3.0661-4.4078,3.3602-9.3083,5.5543-14.2187,8.0484-2.3656,1.2015-4.6963,2.474-6.9439,3.8854-3.7255,2.3395-7.1346,5.1251-10.5885,7.84l4.0057-3.0948c-1.8109,1.3868-3.7434,2.5557-5.8372,3.4636,1.576-.6651,3.152-1.3302,4.728-1.9952-4.302,1.7996-9.0409,2.5837-13.6362,3.2166l5.2616-.707c-4.0452.5363-8.1151.781-12.1936.8572-1.929.036-3.8507.009-5.7741.1789-1.9371.1711-3.8778.405-5.822.2042l5.22.7014c-.7142-.1005-1.3948-.2608-2.0715-.512,1.5603.6584,3.1205,1.3169,4.6808,1.9753-.6533-.2771-1.2359-.619-1.8053-1.0414l3.9576,3.0576c-3.0064-2.363-5.7096-5.1999-9.1693-6.9221-3.8826-1.9327-8.0032-3.2259-11.9857-4.9011,1.5349.6477,3.0698,1.2955,4.6047,1.9432-2.3075-1.0042-4.4644-2.3206-6.7614-3.355-3.7243-1.6771-7.5385-3.0259-11.2954-4.5917,1.5117.638,3.0234,1.2759,4.5352,1.9139-4.2057-1.8147-7.8234-4.5419-11.5715-7.1251-2.0221-1.3936-4.0936-2.6301-6.2934-3.7235-2.2575-1.1221-4.5698-2.1838-6.575-3.7322,1.2408.9587,2.4817,1.9173,3.7225,2.876-1.5084-1.2126-2.8456-2.6035-4.2292-3.9518-2.4352-2.373-5.2142-4.3264-7.908-6.3933,1.225.9464,2.45,1.8928,3.675,2.8393-5.3083-4.1095-10.1479-8.7525-14.7851-13.5972-1.1168-1.1668-2.1901-2.3852-3.3895-3.4692-2.1358-1.9302-4.4664-3.6593-6.8175-5.3171-2.5481-1.7966-5.2456-3.3708-7.7261-5.2645,1.1711.9048,2.3422,1.8096,3.5133,2.7144-1.2834-1.0018-2.5174-2.0657-3.5404-3.3383l2.6986,3.4929c-1.641-2.1618-2.6413-4.6888-4.0529-6.9904-1.4049-2.2906-3.188-4.3887-4.8532-6.4786-.9314-1.1689-1.9103-2.2991-2.9131-3.4072-3.9778-4.3953-8.2986-8.463-11.9375-13.1584.8626,1.1165,1.7252,2.233,2.5878,3.3495-2.2453-2.9216-4.2762-5.9112-6.0764-9.126-1.7475-3.1208-3.3666-6.3123-4.9061-9.5403-3.135-6.5733-6.052-13.2696-8.9093-19.9677.5913,1.4012,1.1826,2.8024,1.7739,4.2036-.9415-2.2384-1.8983-4.4687-2.8488-6.7027.5924,1.4039,1.1849,2.8077,1.7773,4.2116-1.2209-2.9004-2.3335-5.8434-3.4644-8.7796-1.0953-2.844-2.1066-5.5894-2.5323-8.6242l.6333,4.7132c-.3202-2.5212-.5858-5.0362-.9275-7.5615l.6327,4.7085c-.3793-4.06-.3819-8.1634-.5188-12.237-.0729-2.17-.1388-4.3402-.2157-6.5101-.0384-1.0848-.0743-2.1703-.1174-3.2547-.0986-2.4784-.7153-4.9131-1.0729-7.3645.1957,1.4563.3914,2.9125.587,4.3688-.2332-1.9499.0474-3.7825.2069-5.721.1657-2.0135-.176-4.0429.0202-6.0491-.1753,1.3047-.3506,2.6094-.5259,3.9141.1504-.6601.3936-1.3012.6458-1.9287-.4971,1.1779-.9941,2.3557-1.4912,3.5336,1.0042-2.3479,2.4759-4.4342,4.0296-6.4467-.7837,1.0144-1.5675,2.0288-2.3512,3.0432,1.9992-2.5632,4.1008-5.0419,6.0164-7.6713-1.8184,1.8184-3.6368,3.6368-5.4553,5.4553,3.8536-2.4036,6.3273-6.0624,9.1847-9.4744,2.1123-2.5222,4.2427-5.052,6.852-7.078l-3.6507,2.8205c2.0535-1.5489,4.2928-2.7885,6.6568-3.796-1.5229.6427-3.0458,1.2854-4.5688,1.928,2.336-.9658,4.7185-1.7526,6.9898-2.9055l-4.6415,1.9587c1.3545-.2036,2.6909-.7418,4.0383-1.0287,1.3473-.2869,2.6974-.4732,4.0294-.8261,2.5425-.6736,5.129-1.1845,7.734-1.545l-5.4411.7311c3.8666-.511,7.7752-.6546,11.6523-.1706l-5.4245-.7289c.5185.0702,1.0358.1466,1.5507.2401.2277.0413.4538.0894.6809.133,1.6251.3123,4.2749.819,5.9292.7498-1.7995-.2418-3.5989-.4836-5.3984-.7254,2.146.3064,4.235.8314,6.2428,1.6543l-4.714-1.9893c1.4015.6002,2.7419,1.317,3.9791,2.2107-1.3041-1.0075-2.6081-2.015-3.9122-3.0226.77.5959,1.4539,1.2503,2.0663,2.0076l-2.9826-3.8605c1.0679,1.6296,2.0773,3.3621,3.5755,4.6316-.9877-1.2784-1.9754-2.5568-2.9631-3.8352,1.4686,2.1395,2.1999,4.6376,3.3918,6.9226,1.9851,3.8059,5.1596,6.87,7.7728,10.2462-.8781-1.1366-1.7563-2.2732-2.6344-3.4098,1.0852,1.42,2.1845,2.8917,3.0118,4.4809-.5434-1.2877-1.0868-2.5754-1.6302-3.8631,1.2431,3.0054,1.9776,5.4482,4.5342,7.6665-.8346-1.0802-1.6692-2.1605-2.5038-3.2407,1.554,2.4368,2.8606,5.0184,3.9975,7.6737-.4804-1.1384-.9608-2.2768-1.4412-3.4152,1.6379,3.902,2.8819,7.9371,3.8477,12.0549l-.4226-3.1449c.107,2.7146.6718,4.3082,1.7896,6.7421l-1.1752-2.7849c.752,3.2754,1.3856,6.5882,1.8737,9.9135-.1138-.8469-.2276-1.6938-.3414-2.5407.1404,1.1668.159,2.3145.0107,3.4813l.3159-2.3508c-.2137.8319-.4845,1.6337-.8192,2.4292.2882-.6829.5764-1.3658.8645-2.0486-1.5672,3.5885-3.297,7.1864-5.6843,10.308l1.163-1.5053c-.8465,1.0805-1.7658,2.0449-2.7697,2.9774-.8565.7957,1.4795-.9932.5025-.3896-.2335.1442-.4566.3029-.6965.4372-1.0892.6096.3915-.2735.6876-.2469-.2396-.0215-.6825.204-.9355.2515.5902-.0793,1.1804-.1586,1.7706-.2379l-.2365.031c-1.8314.2399-3.3317.5823-4.6935,1.9441-1.1513,1.1513-2.0182,3.0401-1.9441,4.6935.1693,3.7794,2.9181,6.4083,6.6377,6.6377h0Z" style="stroke-width:0px;"/><path d="M534.4494,369.4705l-.23-1.5523-.9127-2.1629c-.569-1.0551-1.3463-1.9019-2.332-2.5403-.5649-.5611-1.2307-.9492-1.9977-1.1642-1.079-.5669-2.2418-.8268-3.4884-.7798-.8023.1078-1.6046.2156-2.407.3234-.721.3042-1.4419.6085-2.1629.9127-1.0551.569-1.9019,1.3463-2.5403,2.332-.8003.8745-1.3405,1.9008-1.6206,3.0791l-.23,1.5523c-.4426,1.6469-.4426,3.2938,0,4.9407.4415,1.5742,1.2381,2.9411,2.3898,4.1006l1.8807,1.453c1.4494.8406,3.0128,1.2635,4.6902,1.2687,1.2794.0483,2.4729-.2185,3.5803-.8003,1.1521-.3748,2.1489-1.0152,2.9907-1.9214,1.1517-1.1595,1.9483-2.5263,2.3898-4.1006.4426-1.6469.4426-3.2938,0-4.9407h0Z" style="stroke-width:0px;"/><path d="M569.7277,351.7711c1.7329,0,3.5533-.7539,4.7789-1.9795,1.1722-1.1722,2.0549-3.0954,1.9795-4.7789-.0783-1.7479-.6524-3.5607-1.9795-4.7789-1.3223-1.2138-2.9477-1.9795-4.7789-1.9795-1.7329,0-3.5533.7539-4.7789,1.9795-1.1722,1.1722-2.0549,3.0954-1.9795,4.7789.0783,1.7479.6524,3.5607,1.9795,4.7789,1.3223,1.2138,2.9477,1.9795,4.7789,1.9795h0Z" style="stroke-width:0px;"/><path d="M562.034,396.0177c2.228,0,4.5685-.9693,6.1443-2.545,1.5071-1.5071,2.642-3.9798,2.545-6.1443-.1007-2.2473-.8388-4.578-2.545-6.1443-1.7001-1.5606-3.7899-2.545-6.1443-2.545-2.228,0-4.5685.9693-6.1443,2.545-1.5071,1.5071-2.642,3.9798-2.545,6.1443.1007,2.2473.8388,4.578,2.545,6.1443,1.7001,1.5606,3.7899,2.545,6.1443,2.545h0Z" style="stroke-width:0px;"/><path d="M612.0434,395.1804c2.5065,0,5.1396-1.0904,6.9123-2.8632.9533-.8854,1.627-1.9341,2.0213-3.146.612-1.165.8927-2.4204.8419-3.7663-.1132-2.5282-.9437-5.1503-2.8632-6.9123-1.9126-1.7557-4.2636-2.8632-6.9123-2.8632-2.5065,0-5.1396,1.0904-6.9123,2.8632-.9533.8854-1.627,1.9341-2.0213,3.146-.612,1.165-.8927,2.4204-.8419,3.7663.1132,2.5282.9437,5.1503,2.8632,6.9123,1.9126,1.7557,4.2636,2.8632,6.9123,2.8632h0Z" style="stroke-width:0px;"/><path d="M598.5793,429.5309c.9783,0,1.8103-.832,1.8103-1.8103,0-.9818-.8285-1.8103-1.8103-1.8103-.9783,0-1.8103.832-1.8103,1.8103,0,.9818.8285,1.8103,1.8103,1.8103h0Z" style="stroke-width:0px;"/><path d="M251.9271,752.3482c.0872-.1063.5952-.5068.5938-.602.001.07-1.1805.8069-.5691.4559.1319-.0757.2579-.1613.3917-.2346.1152-.0631.2364-.1153.3514-.1785.6206-.3411-1.2654.4323-.5661.242.3354-.0913.6655-.2116,1.0011-.3059h-2.6322c.9413.1287,1.8574.3717,2.7615.6596-.9141-.5327-1.8282-1.0655-2.7423-1.5982.9351.778,1.8525,1.5697,3.0856,1.8506.7054.1607,1.4463.1859,2.1624.2282-.58-.0779-1.16-.1559-1.7401-.2338,2.2981.5014,4.5361,1.2392,6.7482,2.0313-.6824-.288-1.3648-.576-2.0473-.864,1.4591,1.0289,3.063,1.1838,4.7786,1.3222l-2.3108-.3105c2.0138.3852,4.0151.8329,6.0293,1.2157,3.372.6409,6.8454,1.0201,10.2682,1.2954,4.4111.3547,8.8061.0428,13.153-.8224,3.4082-.6784,6.6524-1.9872,10.0928-2.5304l-3.4175.4592c2.2066-.2347,4.3723-.6438,6.5664-.9428-1.1654.1566-2.3308.3132-3.4961.4698,5.7236-.7525,11.4813-1.0956,17.2033-1.896,4.7381-.6628,9.2246-2.1666,13.8741-3.2279l-4.154.5582c1.9543-.2611,3.8249-.4277,5.6959-.955.6227-.1755,1.2465-.3472,1.8709-.5164,1.2484-.3384,2.4995-.6665,3.7503-.9959,2.4167-.6365,4.8328-1.2774,7.2269-1.9951,4.4914-1.3465,8.926-2.8936,13.2834-4.6249,5.6247-2.2348,11.211-4.6263,16.604-7.3807,4.256-2.1737,8.3026-4.6745,12.1966-7.4448,8.0283-5.7115,15.7793-12.1091,22.0875-19.7235,3.5313-4.2624,6.6788-8.9298,9.0454-13.9437,2.2987-4.8701,4.4096-9.9538,5.2594-15.3041.5612-3.5334,1.0926-7.1219.9511-10.7113-.0946-2.4001-.4705-4.811-.8194-7.1751-.1547-1.0479-.3662-2.0826-.7064-3.0875-1.3709-4.0502-3.1844-7.4047-6.1349-10.5217-2.7091-2.862-6.1789-4.8315-9.8733-6.0938,1.1147.4704,2.2295.9408,3.3442,1.4113-1.8597-.891-3.8804-1.789-5.9326-2.2306-2.1393-.4604-4.3348-.7345-6.5172-.882-3.4055-.2302-6.8474.2567-10.2008.7726-3.8931.5989-7.6168,2.2608-11.0999,4.0341-1.294.6588-2.5984,1.3386-3.796,2.1632-1.6812,1.1575-3.4206,2.3996-4.8063,3.922-2.1991,2.4162-3.8932,5.2082-5.7809,7.8556-1.4966,2.0989-3.0193,4.196-4.2597,6.4608-1.5809,2.8867-2.8514,6.0207-3.7151,9.1983-.7511,2.7633-1.5959,5.5038-2.336,8.2688-1.0849,4.0534-1.9322,8.2158-1.5095,12.4348.4381,4.3732,1.5814,8.5667,2.186,12.9019l-.3915-2.9134c.4027,3.1324-.4891,6.1662-.2804,9.2881.2633,3.9378,1.2749,8.1994,3.607,11.4582,1.0616,1.4835,2.1853,3.0003,3.5812,4.1985,1.4446,1.2401,2.9819,2.3915,4.5587,3.4611,2.3628,1.6029,4.7274,3.1682,6.9905,4.9141l-2.249-1.7376c5.729,4.4454,11.1339,9.3617,17.2319,13.3127,2.6936,1.7452,5.4987,3.3125,8.1892,5.0662,2.7814,1.813,5.5015,3.7187,8.1319,5.745l-2.3301-1.8002c3.8578,2.9929,7.2548,6.4215,10.8583,9.6984,2.2767,2.0703,4.6663,4.0765,7.3726,5.5594,1.7446.956,3.6182,1.7191,5.4658,2.4346.975.3776,1.9803.6765,3.0055.8825,1.5292.3073,3.0942.4956,4.6433.6519.3064.0309.611.0439.9177.0562.1309.0053.2698.0205.4005.0203.8709-.0017,2.363-.192,3.2009-.4504,1.3963-.4306,2.7602-1.0835,4.0749-1.7043,1.9075-.9008,3.5721-2.3692,4.638-4.1976-2.7441,1.574-5.4883,3.148-8.2324,4.7221l.2997-.0361c1.3127.0495,2.5371-.2242,3.6733-.8211,1.182-.3845,2.2048-1.0416,3.0683-1.9713,1.6536-1.6536,2.8988-4.3667,2.7925-6.7416-.1104-2.4657-.9204-5.0231-2.7925-6.7416-1.7335-1.5913-4.2919-3.0875-6.7416-2.7925l-.2997.0361c2.2472.9308,4.4944,1.8616,6.7416,2.7925-1.6066-1.7598-3.8742-2.3526-5.988-3.2313l2.5014,1.0556c-.3362-.1459-.6627-.3074-.9932-.4652-.8122-.3879-2.0001-.9684-2.8668-1.2147-1.0047-.2856-2.3004-.3724-3.3439-.4692l2.9516.3966c-1.3474-.3443-2.656-.6316-3.9486-1.1675.9061.3824,1.8122.7648,2.7183,1.1471-1.7685-.7622-3.3889-1.781-4.9124-2.954.7916.6116,1.5833,1.2232,2.3749,1.8348-1.522-1.1927-3.0454-2.3827-4.5762-3.5644.7964.6153,1.5928,1.2306,2.3892,1.8459-1.9163-1.4969-3.7163-3.1312-5.5283-4.7506-2.6213-2.3426-5.3438-4.5203-8.1502-6.6426-5.0519-3.8204-10.4791-7.0894-16.0063-10.167-3.0201-1.6817-5.8297-3.7095-8.5643-5.8162l2.2608,1.7467c-3.8279-2.9627-7.558-6.0461-11.426-8.9583-2.7522-2.0722-5.757-3.7779-8.4972-5.8565.746.5763,1.492,1.1527,2.2379,1.729-.8668-.6729-1.665-1.4046-2.3528-2.262l1.7264,2.2345c-.5536-.7213-1.0009-1.4931-1.3611-2.3279.3705.878.7411,1.7561,1.1116,2.6341-.4441-1.0947-.7299-2.2336-.8991-3.4019.1311.9755.2622,1.9511.3932,2.9266-.179-1.6594.0313-3.3046.1927-4.9559.2499-2.5566-.0384-4.8184-.4102-7.3932-.4683-3.2433-1.4211-6.3924-1.8607-9.6405.1299.9667.2598,1.9335.3897,2.9002-.2355-1.9091-.2725-3.8157-.0299-5.7258-.1295.9641-.2591,1.9282-.3886,2.8924.1835-1.2807.4789-2.5333.8636-3.7682-.365.8649-.73,1.7297-1.0949,2.5946.6459-1.4878,1.2422-2.9916,1.8692-4.486-.369.8743-.7379,1.7486-1.1069,2.6229.8854-2.0929,1.8119-4.17,2.6375-6.2874.5311-1.3621.9801-2.752,1.544-4.1019-.3833.9084-.7667,1.8167-1.15,2.7251.5686-1.3296,1.1513-2.6507,1.7021-3.9894-.3853.9129-.7705,1.8258-1.1558,2.7388.9826-1.7803,1.9574-3.49,3.199-5.1096l-1.8459,2.3892c1.5285-1.967,3.2328-3.7801,4.8542-5.6684,1.2979-1.5115,2.5103-3.113,4.0767-4.3632-.8456.6533-1.6912,1.3066-2.5368,1.9599,1.1818-.9088,2.4966-1.5677,3.8653-2.1462-1.0171.4292-2.0343.8585-3.0514,1.2877,2.6837-1.1223,5.413-2.0886,8.3059-2.4901-1.1737.1577-2.3473.3154-3.521.4731,2.4618-.3045,4.9864-.2257,7.4449.0835l-3.6282-.4875c1.7563.2361,3.4805.6349,5.1203,1.3158l-3.3288-1.4048c.9489.4101,1.8242.9043,2.6513,1.5259-.9519-.7355-1.9039-1.4709-2.8558-2.2064.6915.5399,1.3072,1.1475,1.8527,1.8348l-2.2306-2.8872c.557.7321,1.0061,1.5191,1.3688,2.364-.4848-1.1488-.9696-2.2977-1.4544-3.4465.419,1.0322.6869,2.0983.8516,3.1991-.1741-1.2959-.3483-2.5918-.5224-3.8877.3151,2.3704.1898,4.8028-.1134,7.1679.1792-1.3336.3584-2.6672.5376-4.0008-.4346,3.1684-1.3149,6.2384-2.5366,9.1911.5247-1.2435,1.0495-2.4869,1.5742-3.7304-1.6846,3.9916-3.9665,7.6827-6.5957,11.1182.8539-1.1053,1.7079-2.2106,2.5618-3.3159-1.4027,1.8148-2.9497,3.4845-4.4436,5.2199-1.4983,1.7405-3.0342,3.4405-4.6524,5.0711-3.1874,3.2121-6.6045,6.1983-10.1793,8.9714,1.1365-.878,2.273-1.7561,3.4095-2.6341-4.9892,3.8444-10.3386,7.1881-15.7807,10.3489-5.4794,3.1824-11.1777,5.9755-17.0117,8.445,1.2973-.5475,2.5946-1.095,3.892-1.6424-5.1164,2.1535-10.33,4.0018-15.6167,5.6895-1.3454.4295-2.6914.8571-4.0335,1.2971-2.5284.8289-4.938,1.852-7.3882,2.9005-2.6656,1.1406-5.2149,2.5247-7.877,3.6671,1.1783-.4973,2.3567-.9945,3.535-1.4918-7.7204,3.2398-16.1532,4.2994-23.7709,7.8206,1.0236-.432,2.0473-.864,3.0709-1.2959-2.7643,1.154-5.3625,2.3154-7.9423,3.8086-1.6843.9749-3.3665,1.9502-5.161,2.7114.9141-.3857,1.8281-.7715,2.7422-1.1572-3.4621,1.4164-7.0746,2.1941-10.771,2.6933l2.6928-.3618c-2.2246.2928-4.4405.5597-6.6823.653-.954.0397-1.9084.0704-2.8625.1067-.5062.0193-1.0124.0397-1.5185.0627-.2983.0136-.5965.0318-.8948.0434-1.9292.0755-3.0716.362-4.7786,1.2621.6824-.288,1.3648-.576,2.0473-.864-1.1797.2611-2.3555.54-3.521.8588-1.1439.3129-2.2801.8172-3.4353,1.058l1.7325-.2328c-1.878.1516-3.7762.6656-5.0323,2.1789l1.2578-.9718c-1.2331.701-2.3609,1.5287-3.4615,2.4249.7282-.4244,1.4564-.8488,2.1846-1.2732-.6698.2091-2.7174.9944-.6669.2409-.5017.1844-1.0038.4056-1.49.6275-.3421.1562-.6768.3239-.9925.5293-1.2882.8383-2.1131,1.6913-3.0029,2.923-.6642.9194-.8273,2.6671-.4866,3.7198.3293,1.0176.8799,1.8508,1.73,2.5076,1.7455,1.3485,4.8099,1.4859,6.3385-.3774h0Z" style="stroke-width:0px;"/><path d="M840.5576,419.9216c2.1727-.7242,4.3453-1.4484,6.518-2.1727,1.0051-.239,1.8807-.6998,2.6267-1.3825.8408-.5446,1.504-1.267,1.9893-2.1671.5644-.8866.87-1.8438.9166-2.8717.2299-1.0266.1839-2.0533-.138-3.0799l-.7786-1.8451c-.6867-1.1606-1.6103-2.0843-2.7709-2.7709-.615-.2595-1.23-.5191-1.8451-.7786-1.3689-.3679-2.7377-.3679-4.1066,0-2.1727.7242-4.3453,1.4484-6.518,2.1727-1.0051.239-1.8807.6998-2.6267,1.3825-.8408.5446-1.504,1.267-1.9893,2.1671-.5644.8866-.87,1.8438-.9166,2.8717-.2299,1.0266-.1839,2.0533.138,3.0799l.7786,1.8451c.6867,1.1606,1.6103,2.0843,2.7709,2.7709l1.8451.7786c1.3689.3679,2.7377.3679,4.1066,0h0Z" style="fill:#48F775; stroke-width:0px;"/><path d="M899.9611,381.4059c-.7242,2.8969-1.4484,5.7938-2.1727,8.6906-.4426,1.4116-.5058,2.8233-.1897,4.2349.0641,1.4134.4842,2.7296,1.2603,3.9486.6674,1.2376,1.5792,2.2309,2.7353,2.9797,1.0257.9387,2.2296,1.5723,3.6117,1.9009.9411.1265,1.8822.2529,2.8233.3794,1.917-.006,3.7038-.4893,5.3602-1.45.7165-.5535,1.4329-1.1071,2.1494-1.6606,1.3162-1.3251,2.2266-2.8872,2.7312-4.6864.7242-2.8969,1.4484-5.7938,2.1727-8.6906.4426-1.4116.5058-2.8233.1897-4.2349-.0641-1.4134-.4842-2.7296-1.2603-3.9486-.6674-1.2376-1.5792-2.2309-2.7353-2.9797-1.0257-.9387-2.2296-1.5723-3.6117-1.9009-.9411-.1265-1.8822-.2529-2.8233-.3794-1.917.006-3.7038.4893-5.3602,1.45-.7165.5535-1.4329,1.1071-2.1494,1.6606-1.3162,1.3251-2.2266,2.8872-2.7312,4.6864h0Z" style="fill:#48F775; stroke-width:0px;"/><path d="M881.9575,468.2367c1.6948.0639,3.2757-.2895,4.7427-1.0602,1.5261-.4964,2.8467-1.3449,3.9616-2.5453,1.2004-1.115,2.0488-2.4355,2.5453-3.9616.7707-1.467,1.1241-3.0479,1.0602-4.7427-.1466-1.0908-.2931-2.1816-.4397-3.2724-.5849-2.0853-1.6401-3.896-3.1657-5.4319-2.4084-2.2109-5.369-3.6055-8.7044-3.6055-1.6948-.0639-3.2757.2895-4.7427,1.0602-1.5261.4964-2.8467,1.3449-3.9616,2.5453-1.2004,1.115-2.0488,2.4355-2.5453,3.9616-.7707,1.467-1.1241,3.0479-1.0602,4.7427.1466,1.0908.2931,2.1816.4397,3.2724.5849,2.0853,1.6401,3.896,3.1657,5.4319,2.4084,2.2109,5.369,3.6055,8.7044,3.6055h0Z" style="fill:#48F775; stroke-width:0px;"/><path d="M855.8856,545.2455c1.5287.0577,2.9546-.2611,4.2778-.9562,1.3765-.4478,2.5676-1.213,3.5732-2.2957,1.0827-1.0057,1.848-2.1968,2.2957-3.5732.6952-1.3232,1.0139-2.7491.9562-4.2778-.1286-2.8715-1.0719-5.8497-3.252-7.851-2.1723-1.9942-4.8426-3.252-7.851-3.252-1.5287-.0577-2.9546.2611-4.2778.9562-1.3765.4478-2.5676,1.213-3.5732,2.2957-1.0827,1.0057-1.848,2.1968-2.2957,3.5732-.6952,1.3232-1.0139,2.7491-.9562,4.2778.1286,2.8715,1.0719,5.8497,3.252,7.851,2.1723,1.9942,4.8426,3.252,7.851,3.252h0Z" style="fill:#48F775; stroke-width:0px;"/><path d="M189.844,542.8332v-6.518c.0501-1.3293-.227-2.5692-.8315-3.7198-.3894-1.1969-1.0548-2.2327-1.9963-3.1072-.8745-.9415-1.9102-1.6069-3.1072-1.9963-1.1506-.6045-2.3905-.8817-3.7198-.8315l-2.5666.3449c-1.6356.4587-3.0557,1.2864-4.2603,2.4829l-1.5097,1.954c-.8734,1.5059-1.3127,3.1302-1.3182,4.8729v6.518c-.0501,1.3293.227,2.5692.8315,3.7198.3894,1.1969,1.0548,2.2327,1.9963,3.1072.8745.9415,1.9102,1.6069,3.1072,1.9963,1.1506.6045,2.3905.8817,3.7198.8315.8555-.115,1.7111-.2299,2.5666-.3449,1.6356-.4587,3.0557-1.2864,4.2603-2.4829l1.5097-1.954c.8734-1.5059,1.3127-3.1302,1.3182-4.8729h0Z" style="fill:#48F775; stroke-width:0px;"/><path d="M164.9807,478.98c2.0114,0,4.1243-.875,5.5469-2.2976,1.3606-1.3606,2.3851-3.5928,2.2976-5.5469-.0909-2.0288-.7573-4.1329-2.2976-5.5469-1.5348-1.4089-3.4214-2.2976-5.5469-2.2976-2.0114,0-4.1243.875-5.5469,2.2976-1.3606,1.3606-2.3851,3.5928-2.2976,5.5469.0909,2.0288.7573,4.1329,2.2976,5.5469,1.5348,1.4089,3.4214,2.2976,5.5469,2.2976h0Z" style="fill:#48F775; stroke-width:0px;"/><path d="M128.0455,517.7257c1.9185,0,3.934-.8347,5.2909-2.1916,1.2978-1.2978,2.275-3.427,2.1916-5.2909-.0867-1.9351-.7223-3.9422-2.1916-5.2909-1.464-1.3439-3.2635-2.1916-5.2909-2.1916-1.9185,0-3.934.8347-5.2909,2.1916-1.2978,1.2978-2.275,3.427-2.1916,5.2909.0867,1.9351.7223,3.9422,2.1916,5.2909,1.464,1.3439,3.2635,2.1916,5.2909,2.1916h0Z" style="fill:#48F775; stroke-width:0px;"/><path d="M104.1463,465.5816c2.4755,0,5.0761-1.077,6.827-2.8278.9415-.8745,1.6069-1.9102,1.9963-3.1072.6045-1.1506.8817-2.3905.8315-3.7198-.1118-2.497-.932-5.0867-2.8278-6.827-1.889-1.734-4.211-2.8278-6.827-2.8278-2.4755,0-5.0761,1.077-6.827,2.8278-.9415.8745-1.6069,1.9102-1.9963,3.1072-.6045,1.1506-.8817,2.3905-.8315,3.7198.1118,2.497.932,5.0867,2.8278,6.827,1.889,1.734,4.211,2.8278,6.827,2.8278h0Z" style="fill:#48F775; stroke-width:0px;"/></svg>